<svg width="42" height="25" viewBox="0 0 42 25" fill="none" xmlns="http://www.w3.org/2000/svg">
<path d="M17.3662 9.78148C10.6345 8.99041 4.5298 5.45003 0.5 -3.49691e-06L0.499999 12.5L40.5 12.5L17.3662 9.78148Z" fill="url(#paint0_linear_711_2359)"/>
<path d="M17.3662 9.78148C10.6345 8.99041 4.5298 5.45003 0.5 -3.49691e-06L0.499999 12.5L40.5 12.5L17.3662 9.78148Z" fill="url(#paint1_linear_711_2359)"/>
<path d="M17.3662 15.2185C10.6345 16.0096 4.52981 19.55 0.5 25L0.500001 12.5L40.5 12.5L17.3662 15.2185Z" fill="url(#paint2_linear_711_2359)"/>
<path d="M17.3662 15.2185C10.6345 16.0096 4.52981 19.55 0.5 25L0.500001 12.5L40.5 12.5L17.3662 15.2185Z" fill="url(#paint3_linear_711_2359)"/>
<rect x="29.6" y="8.6" width="11.8" height="6.8" rx="3.4" fill="white" stroke="#EDEFF3" stroke-width="0.8"/>
<defs>
<linearGradient id="paint0_linear_711_2359" x1="40.5" y1="6.25" x2="0.5" y2="7" gradientUnits="userSpaceOnUse">
<stop offset="0.514913" stop-color="#FDFDFD"/>
<stop offset="1" stop-color="#FDFDFD" stop-opacity="0"/>
</linearGradient>
<linearGradient id="paint1_linear_711_2359" x1="40.5" y1="6.25" x2="0.5" y2="7" gradientUnits="userSpaceOnUse">
<stop offset="0.514913" stop-color="#FDFDFD"/>
<stop offset="1" stop-color="#FDFDFD" stop-opacity="0"/>
</linearGradient>
<linearGradient id="paint2_linear_711_2359" x1="40.5" y1="18.75" x2="0.500001" y2="18" gradientUnits="userSpaceOnUse">
<stop offset="0.514913" stop-color="#FDFDFD"/>
<stop offset="1" stop-color="#FDFDFD" stop-opacity="0"/>
</linearGradient>
<linearGradient id="paint3_linear_711_2359" x1="40.5" y1="18.75" x2="0.500001" y2="18" gradientUnits="userSpaceOnUse">
<stop offset="0.514913" stop-color="#FDFDFD"/>
<stop offset="1" stop-color="#FDFDFD" stop-opacity="0"/>
</linearGradient>
</defs>
</svg>
