<svg width="41" height="25" viewBox="0 0 41 25" fill="none" xmlns="http://www.w3.org/2000/svg">
<path d="M23.6338 9.78148C30.3655 8.99041 36.4702 5.45003 40.5 -3.49691e-06L40.5 12.5L0.500001 12.5L23.6338 9.78148Z" fill="url(#paint0_linear_711_2366)"/>
<path d="M23.6338 9.78148C30.3655 8.99041 36.4702 5.45003 40.5 -3.49691e-06L40.5 12.5L0.500001 12.5L23.6338 9.78148Z" fill="url(#paint1_linear_711_2366)"/>
<path d="M23.6338 15.2185C30.3655 16.0096 36.4702 19.55 40.5 25L40.5 12.5L0.499999 12.5L23.6338 15.2185Z" fill="url(#paint2_linear_711_2366)"/>
<path d="M23.6338 15.2185C30.3655 16.0096 36.4702 19.55 40.5 25L40.5 12.5L0.499999 12.5L23.6338 15.2185Z" fill="url(#paint3_linear_711_2366)"/>
<rect x="0.6" y="8.6" width="11.8" height="6.8" rx="3.4" fill="white" stroke="#EDEFF3" stroke-width="0.8"/>
<defs>
<linearGradient id="paint0_linear_711_2366" x1="0.500001" y1="6.25" x2="40.5" y2="7" gradientUnits="userSpaceOnUse">
<stop offset="0.514913" stop-color="#FDFDFD"/>
<stop offset="1" stop-color="#FDFDFD" stop-opacity="0"/>
</linearGradient>
<linearGradient id="paint1_linear_711_2366" x1="0.500001" y1="6.25" x2="40.5" y2="7" gradientUnits="userSpaceOnUse">
<stop offset="0.514913" stop-color="#FDFDFD"/>
<stop offset="1" stop-color="#FDFDFD" stop-opacity="0"/>
</linearGradient>
<linearGradient id="paint2_linear_711_2366" x1="0.499999" y1="18.75" x2="40.5" y2="18" gradientUnits="userSpaceOnUse">
<stop offset="0.514913" stop-color="#FDFDFD"/>
<stop offset="1" stop-color="#FDFDFD" stop-opacity="0"/>
</linearGradient>
<linearGradient id="paint3_linear_711_2366" x1="0.499999" y1="18.75" x2="40.5" y2="18" gradientUnits="userSpaceOnUse">
<stop offset="0.514913" stop-color="#FDFDFD"/>
<stop offset="1" stop-color="#FDFDFD" stop-opacity="0"/>
</linearGradient>
</defs>
</svg>
