<svg width="152" height="60" viewBox="0 0 152 60" fill="none" xmlns="http://www.w3.org/2000/svg">
<g clip-path="url(#clip0_330_4960)">
<path d="M2.18791 17.8221C3.64651 19.4337 5.39684 20.7522 6.70959 22.5103C17.9408 38.1861 33.9855 45.9508 51.7805 50.1995C57.9067 51.6645 64.908 51.518 71.18 50.1995C89.1208 46.6834 105.457 39.2117 119.606 27.4914C123.69 24.1218 127.19 19.8732 130.108 15.0386C128.503 15.6246 126.753 16.2106 125.148 16.9431C120.481 18.9942 115.813 21.1917 111 22.9498C108.958 23.6823 106.478 23.6823 104.144 23.5358C103.269 23.5358 101.957 22.2172 101.811 21.3382C101.665 20.4592 102.54 18.8477 103.269 18.7012C115.667 14.8921 126.461 7.56688 137.692 1.26722C141.631 -0.930339 144.11 -0.344324 145.861 3.61128C150.091 13.427 151.987 23.8288 151.695 34.5236C151.695 34.8166 151.112 35.2561 150.236 36.1351C141.631 32.912 144.256 23.5358 140.026 16.0641C139.005 17.8221 138.276 19.2872 137.401 20.4592C119.022 43.1673 94.6635 55.1806 66.3666 59.5757C62.1366 60.3082 57.4691 60.0152 53.0933 59.2827C37.0486 56.4991 22.7542 49.7599 10.9395 38.4792C7.14717 34.8166 4.37582 29.9819 1.60447 25.4403C0.437581 23.6823 0.437582 21.1917 0 19.1407C0.729303 18.7012 1.45861 18.2616 2.18791 17.8221Z" fill="white"/>
</g>
<defs>
<clipPath id="clip0_330_4960">
<rect width="151.724" height="60" fill="white"/>
</clipPath>
</defs>
</svg>
