<svg width="33" height="33" viewBox="0 0 33 33" fill="none" xmlns="http://www.w3.org/2000/svg">
<g clip-path="url(#clip0_330_975)">
<path d="M8.92377 9.83287C8.94589 9.45721 9.13372 9.26938 9.48728 9.26936L23.3754 9.30192C23.7511 9.27981 23.9278 9.45658 23.9057 9.83223L23.9383 23.7204C23.9383 24.0739 23.7504 24.2618 23.3748 24.2839L22.049 24.2839C21.9164 24.2839 21.7948 24.2287 21.6844 24.1182C21.5739 24.0077 21.5076 23.8752 21.4855 23.7205L21.4859 13.4452L10.1827 24.7485C9.91751 25.0137 9.65234 25.0137 9.38719 24.7485L8.45914 23.8205C8.19398 23.5553 8.19399 23.2901 8.45917 23.025L19.7624 11.7217L9.48717 11.7222C9.11152 11.7001 8.9237 11.5123 8.92372 11.1587L8.92377 9.83287Z" fill="#696969"/>
</g>
<defs>
<clipPath id="clip0_330_975">
<rect width="21.0011" height="23.9992" fill="white" transform="matrix(0.707107 -0.707107 -0.707107 -0.707107 17.4062 32.7695)"/>
</clipPath>
</defs>
</svg>
