<svg width="30" height="28" viewBox="0 0 30 28" fill="none" xmlns="http://www.w3.org/2000/svg">
<g clip-path="url(#clip0_711_2446)">
<path d="M19.7341 27.7591C19.7341 27.899 19.6073 28.0001 19.4674 28.0001C18.2585 28.0001 17.0666 28.0001 15.8708 28.0001C15.3554 28.0001 14.9375 27.5822 14.9375 27.0668C14.9375 23.0214 14.9375 18.9858 14.9375 14.9193C14.9375 14.7106 15.1551 14.5728 15.3392 14.671C16.7051 15.4584 18.0709 16.2538 19.4368 17.0331C19.6216 17.1376 19.7421 17.234 19.7421 17.483C19.7341 20.9057 19.7341 24.3284 19.7341 27.7591Z" fill="#3D3D3D"/>
<path d="M14.3901 11.9354C14.3901 12.6543 13.6114 13.1035 12.9889 12.7438C11.8953 12.1119 10.8208 11.4911 9.75422 10.8704C9.67387 10.8222 9.60156 10.6856 9.60156 10.5892C9.60156 7.08615 9.60156 3.58313 9.6096 0.0801224C9.6096 0.0344284 9.66452 0.0078125 9.71021 0.0078125C10.9527 0.0078125 12.2002 0.0078125 13.4567 0.0078125C13.9722 0.0078125 14.3901 0.425684 14.3901 0.94115C14.3901 4.59487 14.3901 8.24238 14.3901 11.9354Z" fill="#3D3D3D"/>
<path d="M16.3121 12.7528C15.6897 13.1123 14.9109 12.6632 14.9104 11.9445C14.9095 10.691 14.9106 9.46919 14.9275 8.25137C14.9275 8.10675 15.0962 7.90589 15.2409 7.81751C17.8761 6.28294 20.5195 4.76443 23.1548 3.23789C23.2617 3.1761 23.3679 3.11431 23.4749 3.05211C23.9155 2.79598 24.4771 2.94852 24.7323 3.38957C25.2252 4.24109 25.7154 5.09307 26.2143 5.95681C26.4722 6.40328 26.3201 6.97452 25.8738 7.23273C22.694 9.07245 19.5212 10.8995 16.3121 12.7528Z" fill="#3D3D3D"/>
<path d="M5.1574 25.3434C5.09084 25.3642 5.01211 25.3375 4.97717 25.2772C4.35531 24.2028 3.73787 23.1326 3.10947 22.0436C2.85183 21.5971 3.00492 21.0262 3.45142 20.7686C6.8821 18.7889 10.3047 16.8128 13.7734 14.8079C14.0577 14.6435 14.4134 14.8487 14.4134 15.1771C14.4134 16.6796 14.4214 18.174 14.4053 19.6764C14.4053 19.829 14.3089 20.054 14.1884 20.1183C11.1878 21.8673 8.17923 23.6003 5.17863 25.3332C5.17006 25.3382 5.16685 25.3404 5.1574 25.3434Z" fill="#3D3D3D"/>
<path d="M16.5691 14.8116C15.9466 14.4527 15.9455 13.554 16.567 13.1934C17.1909 12.8313 17.8026 12.4764 18.4143 12.1243C18.7597 11.9234 19.1293 11.7547 19.4507 11.5136C19.8283 11.2324 20.1336 11.2887 20.5273 11.5136C23.3554 13.1687 26.1916 14.7997 29.0277 16.4387C29.1978 16.5469 29.2534 16.7699 29.1529 16.9445C28.5705 17.9555 27.9874 18.9638 27.3974 19.9852C27.1396 20.4315 26.5689 20.5846 26.1225 20.3269C22.9437 18.4922 19.7765 16.661 16.5691 14.8116Z" fill="#3D3D3D"/>
<path d="M12.7611 13.1958C13.3823 13.5553 13.382 14.4525 12.7608 14.8119C11.6611 15.448 10.5871 16.0678 9.50522 16.6796C9.41685 16.7278 9.24009 16.7197 9.14367 16.6635C6.13076 14.9361 3.11785 13.1926 0.112973 11.4491C0.0316978 11.4085 0.0321702 11.29 0.0776892 11.2113C0.693439 10.1475 1.30499 9.0875 1.92729 8.00901C2.18528 7.56188 2.75727 7.40916 3.20392 7.66799C6.38922 9.51378 9.55766 11.342 12.7611 13.1958Z" fill="#3D3D3D"/>
</g>
<defs>
<clipPath id="clip0_711_2446">
<rect width="29.3337" height="28" fill="white"/>
</clipPath>
</defs>
</svg>
