<svg width="30" height="30" viewBox="0 0 30 30" fill="none" xmlns="http://www.w3.org/2000/svg">
<g clip-path="url(#clip0_711_2493)">
<path fill-rule="evenodd" clip-rule="evenodd" d="M6.45384 14.9993C6.45384 14.0466 6.61206 13.1333 6.89446 12.2766L1.95145 8.50195C0.988082 10.458 0.445312 12.662 0.445312 14.9993C0.445312 17.3346 0.987415 19.5373 1.94945 21.492L6.88979 17.71C6.61006 16.8573 6.45384 15.9473 6.45384 14.9993Z" fill="#FBBC05"/>
<path fill-rule="evenodd" clip-rule="evenodd" d="M15.1345 6.33301C17.2041 6.33301 19.0734 7.06634 20.5422 8.26634L24.8149 3.99967C22.2112 1.73301 18.8731 0.333008 15.1345 0.333008C9.33026 0.333008 4.34185 3.65234 1.95312 8.50234L6.89614 12.277C8.03509 8.81968 11.2817 6.33301 15.1345 6.33301Z" fill="#EB4335"/>
<path fill-rule="evenodd" clip-rule="evenodd" d="M15.1345 23.6667C11.2817 23.6667 8.03508 21.18 6.89614 17.7227L1.95312 21.4967C4.34185 26.3473 9.33025 29.6667 15.1345 29.6667C18.7169 29.6667 22.1371 28.3947 24.7041 26.0113L20.0121 22.384C18.6882 23.218 17.0212 23.6667 15.1345 23.6667Z" fill="#34A853"/>
<path fill-rule="evenodd" clip-rule="evenodd" d="M29.1527 14.9997C29.1527 14.133 29.0192 13.1997 28.8189 12.333H15.1328V17.9997H23.0107C22.6168 19.9317 21.5446 21.417 20.0104 22.3837L24.7024 26.011C27.3989 23.5083 29.1527 19.7803 29.1527 14.9997Z" fill="#4285F4"/>
</g>
<defs>
<clipPath id="clip0_711_2493">
<rect width="30" height="30" fill="white"/>
</clipPath>
</defs>
</svg>
