<svg width="24" height="25" viewBox="0 0 24 25" fill="none" xmlns="http://www.w3.org/2000/svg">
<g clip-path="url(#clip0_330_18075)">
<g clip-path="url(#clip1_330_18075)">
<path d="M3 3.55273L8 9.55273M21 3.55273L16 9.55273M15.5 2.55273L13 8.55273M8.5 2.55273L11 8.55273" stroke="#D4002A" stroke-width="1.5" stroke-linecap="round" stroke-linejoin="round"/>
<path d="M12 22.5527C13.8565 22.5527 15.637 21.8152 16.9497 20.5025C18.2625 19.1897 19 17.4092 19 15.5527C19 13.6962 18.2625 11.9157 16.9497 10.603C15.637 9.29023 13.8565 8.55273 12 8.55273C10.1435 8.55273 8.36301 9.29023 7.05025 10.603C5.7375 11.9157 5 13.6962 5 15.5527C5 17.4092 5.7375 19.1897 7.05025 20.5025C8.36301 21.8152 10.1435 22.5527 12 22.5527Z" stroke="#D4002A" stroke-width="1.5"/>
<path d="M12 19.0527C12.9283 19.0527 13.8185 18.684 14.4749 18.0276C15.1313 17.3712 15.5 16.481 15.5 15.5527C15.5 14.6245 15.1313 13.7342 14.4749 13.0779C13.8185 12.4215 12.9283 12.0527 12 12.0527C11.0717 12.0527 10.1815 12.4215 9.52513 13.0779C8.86875 13.7342 8.5 14.6245 8.5 15.5527C8.5 16.481 8.86875 17.3712 9.52513 18.0276C10.1815 18.684 11.0717 19.0527 12 19.0527Z" stroke="#D4002A" stroke-width="1.5"/>
</g>
</g>
<defs>
<clipPath id="clip0_330_18075">
<rect width="24" height="24" fill="white" transform="translate(0 0.552734)"/>
</clipPath>
<clipPath id="clip1_330_18075">
<rect width="24" height="24" fill="white" transform="translate(0 0.552734)"/>
</clipPath>
</defs>
</svg>
