<svg width="30" height="28" viewBox="0 0 30 28" fill="none" xmlns="http://www.w3.org/2000/svg">
<g clip-path="url(#clip0_711_2382)">
<path d="M6.32519 1.46771C12.4584 -1.97197 21.2202 0.848224 25.8988 7.77207C30.5775 14.6959 29.4001 23.0949 23.2703 26.5346C28.4829 23.6117 29.4823 16.4688 25.5052 10.5854C21.5282 4.70203 14.0773 2.30281 8.86816 5.22568C3.65559 8.15198 2.6562 15.2915 6.6298 21.1783C10.6068 27.0617 18.0543 29.4609 23.2669 26.5346C17.1337 29.9777 8.37188 27.1541 3.69324 20.2302C-0.981985 13.3098 0.195377 4.90739 6.32519 1.46771Z" fill="#3D3D3D"/>
<path d="M10.8817 3.69284C15.906 0.872649 23.0866 3.1863 26.9164 8.85749C30.7497 14.5287 29.7845 21.4115 24.7602 24.2317C29.0316 21.8359 29.8496 15.9833 26.5913 11.1643C23.3364 6.34533 17.2306 4.37736 12.9626 6.77315C8.69128 9.16895 7.87328 15.0215 11.1316 19.8439C14.3898 24.6663 20.4923 26.6309 24.7636 24.2317C19.7393 27.0518 12.5588 24.7416 8.72892 19.067C4.89565 13.3958 5.86082 6.50961 10.8851 3.69284H10.8817Z" fill="#3D3D3D"/>
<path d="M17.9411 3.46713C23.2666 3.80255 28.1437 8.42985 28.8317 13.8033C29.5162 19.1767 25.7548 23.2598 20.4293 22.9278C24.9573 23.2119 28.154 19.7414 27.5722 15.1723C26.9869 10.6032 22.8456 6.67065 18.3176 6.38658C13.7895 6.10251 10.5894 9.57299 11.1747 14.1421C11.7599 18.7112 15.9046 22.6438 20.4293 22.9278C15.1038 22.5924 10.23 17.9651 9.5421 12.5917C8.85416 7.21826 12.6156 3.13515 17.9445 3.46713H17.9411Z" fill="#3D3D3D"/>
<path d="M23.5311 5.64011C27.7443 8.16938 29.7328 13.3135 27.977 17.1262C26.2178 20.939 21.3783 21.9794 17.1651 19.4502C20.7485 21.5995 24.8625 20.7165 26.3547 17.4753C27.8504 14.2342 26.1562 9.86355 22.5762 7.71076C18.9928 5.56139 14.8788 6.44441 13.3866 9.68558C11.8909 12.9267 13.5817 17.2974 17.1651 19.4467C12.9519 16.9175 10.9634 11.7733 12.7226 7.96061C14.4818 4.14787 19.3213 3.10741 23.5345 5.63668L23.5311 5.64011Z" fill="#3D3D3D"/>
</g>
<defs>
<clipPath id="clip0_711_2382">
<rect width="28.4347" height="28" fill="white" transform="translate(0.832031)"/>
</clipPath>
</defs>
</svg>
