<svg width="1378" height="194" viewBox="0 0 1378 194" fill="none" xmlns="http://www.w3.org/2000/svg">
<path d="M1354.2 2.40217L1343.51 1M1354.2 2.40217H1322.52M1354.2 2.40217L1365.24 3.85064M1354.2 2.40217H1376.63M1343.51 1L1347.4 1.00055L1351.25 1.00358L1355.02 1.01212L1358.67 1.02893L1362.16 1.05621L1365.46 1.09728L1368.52 1.15433L1371.36 1.22707L1373.8 1.32767L1376.02 1.44424L1376.63 1.48507V2.40217M1343.51 1H1312.34M1312.34 1H1281.17M1312.34 1L1322.52 2.40217M1281.17 1H1250.01M1281.17 1L1290.84 2.40217M1250.01 1H1218.84M1250.01 1L1259.17 2.40217M1218.84 1H1187.67M1218.84 1L1227.49 2.40217M1187.67 1H1156.51M1187.67 1L1195.82 2.40217M1156.51 1H1125.34M1156.51 1L1164.14 2.40217M1125.34 1H1094.17M1125.34 1L1132.46 2.40217M1094.17 1H1063M1094.17 1L1100.79 2.40217M1063 1H1031.84M1063 1L1069.11 2.40217M1031.84 1H1000.67M1031.84 1L1037.44 2.40217M1000.67 1H969.504M1000.67 1L1005.76 2.40217M969.504 1H938.336M969.504 1L970.634 1.34641L972.349 1.87085L974.084 2.40217M938.336 1H907.169M938.336 1L939.342 1.34641L942.408 2.40217M907.169 1H876.002M907.169 1L910.732 2.40217M876.002 1H844.835M876.002 1L877.135 1.52057L878.284 2.04722L878.669 2.22442L879.057 2.40217M844.835 1H813.668M844.835 1L845.78 1.52057L846.098 1.69529L846.416 1.87085L847.38 2.40217M813.668 1H782.501M813.668 1L815.704 2.40217M782.501 1L782.69 1.17279L782.878 1.34641L783.834 2.22442L784.028 2.40217M782.501 1H751.334M751.334 1H720.167M751.334 1L752.352 2.40217M720.167 1H689M720.167 1L720.356 1.52057L720.676 2.40217M689 1H657.833M689 1V2.40217M657.833 1H626.666M657.833 1L657.644 1.52057L657.324 2.40217M626.666 1H595.499M626.666 1L625.648 2.40217M595.499 1L595.31 1.17279L595.122 1.34641L594.166 2.22442L593.972 2.40217M595.499 1H564.332M564.332 1H533.164M564.332 1L562.554 2.22442L562.296 2.40217M533.164 1H501.998M533.164 1L532.22 1.52057L531.902 1.69529L531.264 2.04722L530.943 2.22442L530.62 2.40217M501.998 1H470.831M501.998 1L500.865 1.52057L499.716 2.04722L499.331 2.22442L498.943 2.40217M470.831 1H439.664M470.831 1L467.268 2.40217M439.664 1H408.496M439.664 1L438.658 1.34641L435.592 2.40217M408.496 1H377.33M408.496 1L403.916 2.40217M377.33 1H346.163M377.33 1L372.24 2.40217M346.163 1H314.995M346.163 1L340.564 2.40217M314.995 1H283.829M314.995 1L308.888 2.40217M283.829 1H252.662M283.829 1L277.212 2.40217M252.662 1H221.495M252.662 1L245.535 2.40217M221.495 1H190.327M221.495 1L213.859 2.40217M190.327 1H159.161M190.327 1L182.183 2.40217M159.161 1H127.994M159.161 1L150.507 2.40217M127.994 1H96.8262M127.994 1L118.831 2.40217M96.8262 1H65.6594M96.8262 1L87.1557 2.40217M65.6594 1H34.4926M65.6594 1L55.4796 2.40217M34.4926 1L30.6032 1.00055L26.7539 1.00358L22.9848 1.01212L19.3339 1.02893L15.8413 1.05621L12.5443 1.09728L9.4822 1.15433L6.64 1.22707L4.20106 1.32767L1.98059 1.44424L1.37032 1.48508V2.40217M34.4926 1L23.8035 2.40217M87.1557 2.40217H118.831M87.1557 2.40217H55.4796M87.1557 2.40217L77.1629 3.85064M118.831 2.40217L109.365 3.85064M118.831 2.40217H150.507M213.859 2.40217H245.535M213.859 2.40217H182.183M213.859 2.40217L211.912 2.75988L205.971 3.85064M245.535 2.40217L238.173 3.85064M245.535 2.40217H277.212M340.564 2.40217H372.24M340.564 2.40217H308.888M340.564 2.40217L339.135 2.75988L338.416 2.93956L334.778 3.85064M372.24 2.40217L371.592 2.58047L370.941 2.75988L366.981 3.85064M372.24 2.40217H403.916M467.268 2.40217L466.814 2.58047L463.586 3.85064M467.268 2.40217H498.943M467.268 2.40217H435.592M498.943 2.40217L498.165 2.75988L497.772 2.93956L497.379 3.12035L495.788 3.85064M498.943 2.40217H530.62M593.972 2.40217H625.648M593.972 2.40217H562.296M593.972 2.40217L592.395 3.85064M625.648 2.40217L625.518 2.58047L625.389 2.75988L625.257 2.93956L624.862 3.48384L624.596 3.85064M625.648 2.40217H657.324M720.676 2.40217H752.352M720.676 2.40217H689M720.676 2.40217L721.202 3.85064M752.352 2.40217L752.482 2.58047L752.611 2.75988L752.743 2.93956L753.404 3.85064M752.352 2.40217H784.028M847.38 2.40217H879.057M847.38 2.40217H815.704M847.38 2.40217L848.029 2.75988L849.345 3.48384L849.676 3.66683L850.01 3.85064M879.057 2.40217L879.835 2.75988L880.228 2.93956L880.621 3.12035L882.212 3.85064M879.057 2.40217H910.732M974.084 2.40217H1005.76M974.084 2.40217H942.408M974.084 2.40217L975.253 2.75988L975.841 2.93956L978.817 3.85064M1005.76 2.40217L1006.41 2.58047L1007.06 2.75988L1011.02 3.85064M1005.76 2.40217H1037.44M1100.79 2.40217H1132.46M1100.79 2.40217H1069.11M1100.79 2.40217L1102.48 2.75988L1103.33 2.93956L1107.63 3.85064M1132.46 2.40217L1139.83 3.85064M1132.46 2.40217H1164.14M1227.49 2.40217H1259.17M1227.49 2.40217H1195.82M1227.49 2.40217L1236.43 3.85064M1259.17 2.40217L1268.64 3.85064M1259.17 2.40217H1290.84M1.2593 15.5145H1.37032M33.1417 15.5145L45.2354 13.6639M33.1417 15.5145L20.5846 17.4359M33.1417 15.5145H69.5782M33.1417 15.5145H1.37032M45.2354 13.6639H9.47074M45.2354 13.6639L56.8914 11.8803M45.2354 13.6639H81M9.47074 13.6639L21.7743 11.8803M9.47074 13.6639H1.37032M9.47074 13.6639L1.37032 14.838M45.0907 8.50003H78.9808M45.0907 8.50003L56.1486 6.89695M45.0907 8.50003H11.2013M45.0907 8.50003L33.6395 10.1601M78.9808 8.50003L89.4571 6.89695M78.9808 8.50003L68.1327 10.1601M78.9808 8.50003H112.871M56.1486 6.89695H89.4571M56.1486 6.89695L66.8334 5.34817M56.1486 6.89695H22.8408M89.4571 6.89695H122.765M89.4571 6.89695L99.5789 5.34817M1.02149 44.7237H1.37032M30.422 44.7237L46.0168 41.6556M30.422 44.7237L14.0521 47.9444M30.422 44.7237H77.4637M30.422 44.7237H1.37032M46.0168 41.6556L60.8904 38.7294M46.0168 41.6556H91.944M46.0168 41.6556H1.37032M16.0254 38.7294H60.8904M16.0254 38.7294L31.2407 35.9356M16.0254 38.7294H1.37032M16.0254 38.7294L1.37032 41.4204M45.7826 33.2652H88.6635M45.7826 33.2652L59.6956 30.7105M45.7826 33.2652H2.90173M45.7826 33.2652L31.2407 35.9356M88.6635 33.2652L101.65 30.7105M88.6635 33.2652L75.0907 35.9356M88.6635 33.2652H131.545M59.6956 30.7105H101.65M59.6956 30.7105H17.7424M59.6956 30.7105L73.0199 28.2639M101.65 30.7105L114.085 28.2639M101.65 30.7105H143.603M98.0439 23.6688H137.441M98.0439 23.6688L109.809 21.5084M98.0439 23.6688H58.647M98.0439 23.6688L85.7912 25.9186M137.441 23.6688L148.421 21.5084M137.441 23.6688L126.005 25.9186M137.441 23.6688H176.838M109.809 21.5084H148.421M109.809 21.5084H71.1963M109.809 21.5084L121.115 19.4325M148.421 21.5084L158.974 19.4325M148.421 21.5084H187.035M142.451 15.5145H178.888M142.451 15.5145L152.529 13.6639M142.451 15.5145H106.015M142.451 15.5145L131.987 17.4359M178.888 15.5145L188.294 13.6639M178.888 15.5145L169.121 17.4359M178.888 15.5145H215.324M152.529 13.6639H188.294M152.529 13.6639H116.765M152.529 13.6639L162.243 11.8803M188.294 13.6639L197.36 11.8803M188.294 13.6639H224.058M180.65 8.50003H214.541M180.65 8.50003L189.38 6.89695M180.65 8.50003H146.761M180.65 8.50003L171.61 10.1601M214.541 8.50003L222.688 6.89695M214.541 8.50003L206.103 10.1601M214.541 8.50003H248.431M189.38 6.89695H222.688M189.38 6.89695L197.816 5.34817M189.38 6.89695H156.073M222.688 6.89695H255.997M222.688 6.89695L230.562 5.34817M25.471 97.9154L47.4193 91.8699M25.471 97.9154L1.96698 104.389M25.471 97.9154H91.8237M25.471 97.9154H1.37032M47.4193 91.8699L67.963 86.2116M47.4193 91.8699H111.577M47.4193 91.8699H1.37032M46.9738 75.9163H105.34M46.9738 75.9163L65.7296 71.22M46.9738 75.9163L27.054 80.9044M46.9738 75.9163H1.37032M105.34 75.9163L122.39 71.22M105.34 75.9163L87.2309 80.9044M105.34 75.9163H163.706M65.7296 71.22H122.39M65.7296 71.22H9.06891M65.7296 71.22L83.421 66.79M122.39 71.22L138.474 66.79M122.39 71.22H179.052M115.952 58.6443H168.047M115.952 58.6443L130.941 54.8911M115.952 58.6443H63.8565M115.952 58.6443L100.135 62.605M168.047 58.6443L181.674 54.8911M168.047 58.6443L153.668 62.605M168.047 58.6443H220.143M130.941 54.8911H181.674M130.941 54.8911H80.2085M130.941 54.8911L145.166 51.3292M181.674 54.8911L194.606 51.3292M181.674 54.8911H232.406M171.546 44.7237H218.588M171.546 44.7237L183.799 41.6556M171.546 44.7237H124.505M171.546 44.7237L158.684 47.9444M218.588 44.7237L229.726 41.6556M218.588 44.7237L206.894 47.9444M218.588 44.7237H265.629M183.799 41.6556H229.726M183.799 41.6556H137.872M183.799 41.6556L195.485 38.7294M229.726 41.6556L240.35 38.7294M229.726 41.6556H275.654M217.308 33.2652H260.188M217.308 33.2652L227.51 30.7105M217.308 33.2652H174.426M217.308 33.2652L206.643 35.9356M260.188 33.2652L269.464 30.7105M260.188 33.2652L250.494 35.9356M260.188 33.2652H303.069M227.51 30.7105H269.464M227.51 30.7105H185.557M227.51 30.7105L237.281 28.2639M269.464 30.7105L278.347 28.2639M269.464 30.7105H311.418M255.632 23.6688H295.029M255.632 23.6688L264.26 21.5084M255.632 23.6688H216.235M255.632 23.6688L246.647 25.9186M295.029 23.6688L296.028 23.394L302.872 21.5084M295.029 23.6688L286.861 25.9186M295.029 23.6688H334.427M264.26 21.5084H302.872M264.26 21.5084H225.647M264.26 21.5084L272.551 19.4325M302.872 21.5084L310.41 19.4325M302.872 21.5084H341.486M288.197 15.5145H324.634M288.197 15.5145L295.588 13.6639M288.197 15.5145H251.761M288.197 15.5145L280.524 17.4359M324.634 15.5145L331.353 13.6639M324.634 15.5145L322.049 16.2266L317.658 17.4359M324.634 15.5145H361.071M295.588 13.6639H331.353M295.588 13.6639H259.824M295.588 13.6639L302.711 11.8803M331.353 13.6639L337.828 11.8803M331.353 13.6639H367.118M316.21 8.50003H350.1M316.21 8.50003L322.612 6.89695M316.21 8.50003H282.321M316.21 8.50003L309.581 10.1601M350.1 8.50003L354.485 7.29269L355.204 7.09427L355.921 6.89695M350.1 8.50003L344.073 10.1601M350.1 8.50003H383.99M322.612 6.89695H355.921M322.612 6.89695L328.798 5.34817M322.612 6.89695H289.304M355.921 6.89695H389.229M355.921 6.89695L361.544 5.34817M49.5116 166.782H140.867M49.5116 166.782L78.2774 155.463M49.5116 166.782L17.9021 179.22M49.5116 166.782L1.37032 166.782M140.867 166.782L165.524 155.463M140.867 166.782L113.773 179.22M140.867 166.782H232.223M78.2774 155.463H165.524M78.2774 155.463L104.567 145.119M78.2774 155.463H1.37032M165.524 155.463L188.057 145.119M165.524 155.463H252.77M150.894 126.89H227.767M150.894 126.89L171.408 118.818M150.894 126.89H74.022M150.894 126.89L128.686 135.628M227.767 126.89L245.35 118.818M227.767 126.89L208.732 135.628M227.767 126.89H304.639M171.408 118.818H245.35M171.408 118.818H97.4666M171.408 118.818L190.416 111.339M245.35 118.818L261.642 111.339M245.35 118.818H319.292M224.53 97.9154H290.882M224.53 97.9154L239.894 91.8699M224.53 97.9154H158.176M224.53 97.9154L208.077 104.389M290.882 97.9154L304.052 91.8699M290.882 97.9154L276.78 104.389M290.882 97.9154H357.235M239.894 91.8699H304.052M239.894 91.8699H175.735M239.894 91.8699L254.274 86.2116M304.052 91.8699L316.378 86.2116M304.052 91.8699H368.21M280.438 75.9163H338.804M280.438 75.9163L292.374 71.22M280.438 75.9163H222.072M280.438 75.9163L267.762 80.9044M338.804 75.9163L349.034 71.22M338.804 75.9163L327.939 80.9044M338.804 75.9163H397.17M292.374 71.22H349.034M292.374 71.22H235.712M292.374 71.22L303.632 66.79M349.034 71.22L358.684 66.79M349.034 71.22H405.695M324.333 58.6443H376.429M324.333 58.6443L333.871 54.8911M324.333 58.6443H272.238M324.333 58.6443L314.268 62.605M376.429 58.6443L384.604 54.8911M376.429 58.6443L367.801 62.605M376.429 58.6443H428.524M333.871 54.8911H384.604M333.871 54.8911H283.139M333.871 54.8911L342.924 51.3292M384.604 54.8911L392.363 51.3292M384.604 54.8911H435.337M359.711 44.7237H406.752M359.711 44.7237L367.509 41.6556M359.711 44.7237H312.67M359.711 44.7237L351.526 47.9444M406.752 44.7237L413.436 41.6556M406.752 44.7237L399.736 47.9444M406.752 44.7237H453.793M367.509 41.6556H413.436M367.509 41.6556H321.581M367.509 41.6556L374.945 38.7294M413.436 41.6556L419.81 38.7294M413.436 41.6556H459.363M388.832 33.2652H431.713M388.832 33.2652L395.325 30.7105M388.832 33.2652H345.951M388.832 33.2652L382.046 35.9356M431.713 33.2652L437.278 30.7105M431.713 33.2652L425.896 35.9356M431.713 33.2652H474.594M395.325 30.7105H437.278M395.325 30.7105H353.371M395.325 30.7105L401.543 28.2639M437.278 30.7105L442.608 28.2639M437.278 30.7105H479.232M413.22 23.6688H452.618M413.22 23.6688L418.711 21.5084M413.22 23.6688H373.824M413.22 23.6688L407.502 25.9186M452.618 23.6688L452.016 23.9449L447.716 25.9186M452.618 23.6688L457.323 21.5084M452.618 23.6688H492.015M418.711 21.5084H457.323M418.711 21.5084H380.098M418.711 21.5084L423.987 19.4325M457.323 21.5084L461.846 19.4325M457.323 21.5084H495.937M433.944 15.5145H470.38M433.944 15.5145L438.647 13.6639M433.944 15.5145H397.507M433.944 15.5145L429.061 17.4359M470.38 15.5145L474.412 13.6639M470.38 15.5145L468.83 16.2266L467.783 16.7069L466.195 17.4359M470.38 15.5145H506.817M438.647 13.6639H474.412M438.647 13.6639H402.882M438.647 13.6639L443.18 11.8803M474.412 13.6639L475.886 12.9874L476.857 12.5415L478.297 11.8803M474.412 13.6639H510.176M451.771 8.50003H485.66M451.771 8.50003L454.839 7.29269L455.844 6.89695M451.771 8.50003H417.881M451.771 8.50003L448.087 9.94933L447.552 10.1601M485.66 8.50003L488.291 7.29269L488.722 7.09427L489.153 6.89695M485.66 8.50003L483.868 9.32265L482.044 10.1601M485.66 8.50003H519.55M455.844 6.89695H489.153M455.844 6.89695L459.781 5.34817M455.844 6.89695H422.536M489.153 6.89695H522.46M489.153 6.89695L492.526 5.34817M414.934 166.782H506.289M414.934 166.782L427.262 155.463M414.934 166.782H323.579M414.934 166.782L401.387 179.22M506.289 166.782L514.508 155.463M506.289 166.782L497.258 179.22M506.289 166.782H597.645M427.262 155.463H514.508M427.262 155.463H340.016M427.262 155.463L438.529 145.119M514.508 155.463L522.019 145.119M514.508 155.463H601.754M458.383 126.89H535.255M458.383 126.89L467.175 118.818M458.383 126.89H381.511M458.383 126.89L448.865 135.628M535.255 126.89L541.117 118.818M535.255 126.89L528.911 135.628M535.255 126.89H612.128M467.175 118.818H541.117M467.175 118.818H393.233M467.175 118.818L475.321 111.339M541.117 118.818L546.548 111.339M541.117 118.818H615.058M489.941 97.9154H556.294M489.941 97.9154L496.526 91.8699M489.941 97.9154H423.589M489.941 97.9154L482.89 104.389M556.294 97.9154L560.684 91.8699M556.294 97.9154L551.594 104.389M556.294 97.9154H622.647M496.526 91.8699H560.684M496.526 91.8699H432.368M496.526 91.8699L502.689 86.2116M560.684 91.8699L564.793 86.2116M560.684 91.8699H624.842M513.902 75.9163H572.268M513.902 75.9163L519.017 71.22M513.902 75.9163H455.536M513.902 75.9163L508.469 80.9044M572.268 75.9163L575.678 71.22M572.268 75.9163L568.646 80.9044M572.268 75.9163H630.634M519.017 71.22H575.678M519.017 71.22H462.357M519.017 71.22L523.842 66.79M575.678 71.22L578.895 66.79M575.678 71.22H632.339M532.714 58.6443H584.81M532.714 58.6443L536.802 54.8911M532.714 58.6443H480.619M532.714 58.6443L528.401 62.605M584.81 58.6443L587.535 54.8911M584.81 58.6443L581.934 62.605M584.81 58.6443H636.905M536.802 54.8911H587.535M536.802 54.8911H486.07M536.802 54.8911L540.682 51.3292M587.535 54.8911L590.121 51.3292M587.535 54.8911H638.267M547.876 44.7237H594.917M547.876 44.7237L551.218 41.6556M547.876 44.7237H500.835M547.876 44.7237L544.369 47.9444M594.917 44.7237L597.146 41.6556M594.917 44.7237L592.579 47.9444M594.917 44.7237H641.959M551.218 41.6556H597.146M551.218 41.6556H505.29M551.218 41.6556L552.431 40.5422L554.405 38.7294M597.146 41.6556L599.27 38.7294M597.146 41.6556H643.073M560.357 33.2652H603.238M560.357 33.2652L563.139 30.7105M560.357 33.2652H517.475M560.357 33.2652L558.188 35.2568L557.448 35.9356M603.238 33.2652L603.943 32.294L605.093 30.7105M603.238 33.2652L601.299 35.9356M603.238 33.2652H646.119M563.139 30.7105L563.478 30.3988L565.804 28.2639M563.139 30.7105H605.093M563.139 30.7105H521.185M605.093 30.7105L605.768 29.7807L605.99 29.4739L606.212 29.1691L606.869 28.2639M605.093 30.7105H647.047M570.809 23.6688H610.206M570.809 23.6688L571.997 22.5777L572.291 22.3085L572.582 22.0403L572.873 21.7738L573.162 21.5084M570.809 23.6688H531.412M570.809 23.6688L568.358 25.9186M610.206 23.6688L611.388 22.0403L611.582 21.7738L611.774 21.5084M610.206 23.6688L608.572 25.9186M610.206 23.6688H649.603M573.162 21.5084H611.774M573.162 21.5084H534.549M573.162 21.5084L574.586 20.2013L574.866 19.9437L575.423 19.4325M611.774 21.5084L612.723 20.2013L612.911 19.9437L613.096 19.6874L613.282 19.4325M611.774 21.5084H650.387M579.691 15.5145H616.127M579.691 15.5145L581.706 13.6639M579.691 15.5145H543.253M579.691 15.5145L579.174 15.9879L578.391 16.7069L577.598 17.4359M616.127 15.5145L615.955 15.7507L614.909 17.1917L614.732 17.4359M616.127 15.5145L617.471 13.6639M616.127 15.5145H652.564M581.706 13.6639H617.471M581.706 13.6639H545.942M581.706 13.6639L583.649 11.8803M617.471 13.6639L617.962 12.9874L618.124 12.7639L618.286 12.5415L618.766 11.8803M617.471 13.6639H653.235M587.33 8.50003H621.22M587.33 8.50003L588.646 7.29269L589.076 6.89695M587.33 8.50003H553.44M587.33 8.50003L586.659 9.11568L586.434 9.32265L586.207 9.53072L585.522 10.1601M621.22 8.50003L621.368 8.29665L621.661 7.89236L621.953 7.49167L622.384 6.89695M621.22 8.50003L620.622 9.32265L620.472 9.53072L620.168 9.94933L620.015 10.1601M621.22 8.50003H655.11M589.076 6.89695H622.384M589.076 6.89695L590.555 5.53888L590.764 5.34817M589.076 6.89695H555.768M622.384 6.89695L622.527 6.70047L622.669 6.50479L622.811 6.30996L622.951 6.11595L623.37 5.53888L623.509 5.34817M622.384 6.89695H655.692M780.355 166.782H871.711M780.355 166.782L776.246 155.463M780.355 166.782H689M780.355 166.782L784.871 179.22M871.711 166.782L863.492 155.463M871.711 166.782L880.742 179.22M871.711 166.782H963.066M776.246 155.463H863.492M776.246 155.463H689M776.246 155.463L772.49 145.119M863.492 155.463L855.981 145.119M863.492 155.463H950.738M765.872 126.89H842.745M765.872 126.89L762.942 118.818M765.872 126.89H689M765.872 126.89L769.045 135.628M842.745 126.89L836.883 118.818M842.745 126.89L849.089 135.628M842.745 126.89H919.617M762.942 118.818H836.883M762.942 118.818H689M762.942 118.818L760.226 111.339M836.883 118.818L831.453 111.339M836.883 118.818H910.825M755.353 97.9154H821.706M755.353 97.9154L753.158 91.8699M755.353 97.9154H689M755.353 97.9154L757.704 104.389M821.706 97.9154L817.316 91.8699M821.706 97.9154L826.406 104.389M821.706 97.9154H888.059M753.158 91.8699H817.316M753.158 91.8699H689M753.158 91.8699L751.104 86.2116M817.316 91.8699L813.207 86.2116M817.316 91.8699H881.474M747.366 75.9163H805.732M747.366 75.9163L745.661 71.22M747.366 75.9163H689M747.366 75.9163L749.177 80.9044M805.732 75.9163L802.322 71.22M805.732 75.9163L809.354 80.9044M805.732 75.9163H864.098M745.661 71.22H802.322M745.661 71.22H689M745.661 71.22L744.053 66.79M802.322 71.22L799.105 66.79M802.322 71.22H858.983M741.095 58.6443H793.19M741.095 58.6443L739.733 54.8911M741.095 58.6443H689M741.095 58.6443L742.533 62.605M793.19 58.6443L790.465 54.8911M793.19 58.6443L796.066 62.605M793.19 58.6443H845.286M739.733 54.8911H790.465M739.733 54.8911H689M739.733 54.8911L738.439 51.3292M790.465 54.8911L787.879 51.3292M790.465 54.8911H841.198M736.041 44.7237H783.083M736.041 44.7237L734.927 41.6556M736.041 44.7237H689M736.041 44.7237L737.211 47.9444M783.083 44.7237L780.854 41.6556M783.083 44.7237L785.421 47.9444M783.083 44.7237H830.124M734.927 41.6556H780.854M734.927 41.6556H689M734.927 41.6556L733.865 38.7294M780.854 41.6556L778.73 38.7294M780.854 41.6556H826.782M731.881 33.2652H774.762M731.881 33.2652L730.953 30.7105M731.881 33.2652H689M731.881 33.2652L732.851 35.9356M774.762 33.2652L773.134 31.0238L772.907 30.7105M774.762 33.2652L776.701 35.9356M774.762 33.2652H817.643M730.953 30.7105L730.841 30.3988L730.065 28.2639M730.953 30.7105H772.907M730.953 30.7105H689M772.907 30.7105L772.232 29.7807L772.01 29.4739L771.788 29.1691L771.131 28.2639M772.907 30.7105H814.861M728.397 23.6688H767.794M728.397 23.6688L727.613 21.5084M728.397 23.6688H689M728.397 23.6688L728.699 24.5016L728.802 24.7821L728.903 25.064L729.11 25.6323L729.214 25.9186M767.794 23.6688L766.612 22.0403L766.225 21.5084M767.794 23.6688L769.428 25.9186M767.794 23.6688H807.191M727.613 21.5084H766.225M727.613 21.5084H689M727.613 21.5084L726.859 19.4325M766.225 21.5084L765.277 20.2013L765.089 19.9437L764.904 19.6874L764.718 19.4325M766.225 21.5084H804.838M725.437 15.5145H761.873M725.437 15.5145L724.765 13.6639M725.437 15.5145H689M725.437 15.5145L726.134 17.4359M761.873 15.5145L762.045 15.7507L763.091 17.1917L763.268 17.4359M761.873 15.5145L760.529 13.6639M761.873 15.5145H798.31M724.765 13.6639H760.529M724.765 13.6639H689M724.765 13.6639L724.117 11.8803M760.529 13.6639L760.038 12.9874L759.876 12.7639L759.714 12.5415L759.234 11.8803M760.529 13.6639H796.294M722.89 8.50003H756.78M722.89 8.50003L722.308 6.89695M722.89 8.50003H689M722.89 8.50003L723.493 10.1601M756.78 8.50003L756.632 8.29665L756.338 7.89236L756.193 7.69146L755.903 7.29269L755.76 7.09427L755.616 6.89695M756.78 8.50003L757.378 9.32265L757.528 9.53072L757.832 9.94933L757.985 10.1601M756.78 8.50003H790.67M722.308 6.89695L722.237 6.70047L722.165 6.50479L722.095 6.30996L721.746 5.34817M722.308 6.89695H755.616M722.308 6.89695H689M755.616 6.89695H788.924M755.616 6.89695L755.331 6.50479L755.189 6.30996L755.049 6.11595L754.63 5.53888L754.491 5.34817M1145.78 166.782H1237.13M1145.78 166.782L1125.23 155.463M1145.78 166.782H1054.42M1145.78 166.782L1168.36 179.22M1237.13 166.782L1212.48 155.463M1237.13 166.782L1264.23 179.22M1237.13 166.782H1328.49M1125.23 155.463H1212.48M1125.23 155.463H1037.98M1125.23 155.463L1106.45 145.119M1212.48 155.463L1189.94 145.119M1212.48 155.463H1299.72M1073.36 126.89H1150.23M1073.36 126.89L1058.71 118.818M1073.36 126.89H996.489M1073.36 126.89L1089.22 135.628M1150.23 126.89L1132.65 118.818M1150.23 126.89L1169.27 135.628M1150.23 126.89H1227.11M1058.71 118.818H1132.65M1058.71 118.818H984.767M1058.71 118.818L1045.13 111.339M1132.65 118.818L1116.36 111.339M1132.65 118.818H1206.59M1020.76 97.9154H1087.12M1020.76 97.9154L1009.79 91.8699M1020.76 97.9154H954.411M1020.76 97.9154L1032.52 104.389M1087.12 97.9154L1073.95 91.8699M1087.12 97.9154L1101.22 104.389M1087.12 97.9154H1153.47M1009.79 91.8699H1073.95M1009.79 91.8699H945.632M1009.79 91.8699L999.519 86.2116M1073.95 91.8699L1061.62 86.2116M1073.95 91.8699H1138.11M980.83 75.9163H1039.2M980.83 75.9163L972.305 71.22M980.83 75.9163H922.464M980.83 75.9163L989.885 80.9044M1039.2 75.9163L1028.97 71.22M1039.2 75.9163L1050.06 80.9044M1039.2 75.9163H1097.56M972.305 71.22H1028.97M972.305 71.22H915.643M972.305 71.22L964.263 66.79M1028.97 71.22L1019.32 66.79M1028.97 71.22H1085.63M949.476 58.6443H1001.57M949.476 58.6443L942.663 54.8911M949.476 58.6443H897.381M949.476 58.6443L956.666 62.605M1001.57 58.6443L993.396 54.8911M1001.57 58.6443L1010.2 62.605M1001.57 58.6443H1053.67M942.663 54.8911H993.396M942.663 54.8911H891.93M942.663 54.8911L936.197 51.3292M993.396 54.8911L985.637 51.3292M993.396 54.8911H1044.13M924.207 44.7237H971.248M924.207 44.7237L918.637 41.6556M924.207 44.7237H877.165M924.207 44.7237L930.053 47.9444M971.248 44.7237L964.564 41.6556M971.248 44.7237L978.264 47.9444M971.248 44.7237H1018.29M918.637 41.6556H964.564M918.637 41.6556H872.71M918.637 41.6556L913.325 38.7294M964.564 41.6556L958.19 38.7294M964.564 41.6556H1010.49M903.406 33.2652L904 33.5926L904.598 33.9216L908.253 35.9356M903.406 33.2652H946.287M903.406 33.2652L898.768 30.7105M903.406 33.2652H860.525M946.287 33.2652L940.722 30.7105M946.287 33.2652L952.104 35.9356M946.287 33.2652H989.168M898.768 30.7105H940.722M898.768 30.7105H856.815M898.768 30.7105L894.327 28.2639M940.722 30.7105L935.392 28.2639M940.722 30.7105H982.675M885.985 23.6688H925.383M885.985 23.6688L882.064 21.5084M885.985 23.6688H846.588M885.985 23.6688L890.069 25.9186M925.383 23.6688L922.419 22.3085L920.677 21.5084M925.383 23.6688L930.283 25.9186M925.383 23.6688H964.78M882.064 21.5084H920.677M882.064 21.5084H843.451M882.064 21.5084L878.759 19.6874L878.295 19.4325M920.677 21.5084L916.154 19.4325M920.677 21.5084H959.289M871.183 15.5145H907.62M871.183 15.5145L870.332 15.0452L867.824 13.6639M871.183 15.5145H834.747M871.183 15.5145L872.043 15.9879L873.787 16.9486L874.671 17.4359M907.62 15.5145L903.588 13.6639M907.62 15.5145L909.17 16.2266L910.217 16.7069L911.805 17.4359M907.62 15.5145H944.056M867.824 13.6639H903.588M867.824 13.6639H832.058M867.824 13.6639L865.384 12.3199L864.586 11.8803M903.588 13.6639L902.114 12.9874L901.143 12.5415L899.703 11.8803M903.588 13.6639H939.353M858.45 8.50003H892.34M858.45 8.50003L856.619 7.49167L855.54 6.89695M858.45 8.50003H824.56M858.45 8.50003L861.463 10.1601M892.34 8.50003L889.709 7.29269L889.278 7.09427L888.847 6.89695M892.34 8.50003L894.132 9.32265L895.956 10.1601M892.34 8.50003H926.229M855.54 6.89695H888.847M855.54 6.89695L854.122 6.11595L853.422 5.7304L853.074 5.53888L852.728 5.34817M855.54 6.89695H822.232M888.847 6.89695H922.156M888.847 6.89695L885.474 5.34817M1354.48 118.818H1280.53M1354.48 118.818L1330.04 111.339M1354.48 118.818H1376.63M1354.48 118.818L1376.63 125.598M1286.18 97.9154H1352.53M1286.18 97.9154L1266.42 91.8699M1286.18 97.9154H1219.82M1286.18 97.9154L1307.33 104.389M1352.53 97.9154L1330.58 91.8699M1352.53 97.9154L1376.03 104.389M1352.53 97.9154H1376.63M1266.42 91.8699H1330.58M1266.42 91.8699H1202.26M1266.42 91.8699L1247.93 86.2116M1330.58 91.8699L1310.04 86.2116M1330.58 91.8699H1376.63M1214.29 75.9163H1272.66M1214.29 75.9163L1198.95 71.22M1214.29 75.9163H1155.93M1214.29 75.9163L1230.59 80.9044M1272.66 75.9163L1255.61 71.22M1272.66 75.9163L1290.77 80.9044M1272.66 75.9163H1331.03M1198.95 71.22H1255.61M1198.95 71.22H1142.29M1198.95 71.22L1184.47 66.79M1255.61 71.22L1239.53 66.79M1255.61 71.22H1312.27M1157.86 58.6443H1209.95M1157.86 58.6443L1145.59 54.8911M1157.86 58.6443H1105.76M1157.86 58.6443L1170.8 62.605M1209.95 58.6443L1196.33 54.8911M1209.95 58.6443L1224.33 62.605M1209.95 58.6443H1262.05M1145.59 54.8911H1196.33M1145.59 54.8911H1094.86M1145.59 54.8911L1133.96 51.3292M1196.33 54.8911L1183.39 51.3292M1196.33 54.8911H1247.06M1112.37 44.7237H1159.41M1112.37 44.7237L1102.35 41.6556M1112.37 44.7237H1065.33M1112.37 44.7237L1122.9 47.9444M1159.41 44.7237L1148.27 41.6556M1159.41 44.7237L1171.11 47.9444M1159.41 44.7237H1206.45M1102.35 41.6556H1148.27M1102.35 41.6556H1056.42M1102.35 41.6556L1092.78 38.7294M1148.27 41.6556L1137.65 38.7294M1148.27 41.6556H1194.2M1074.93 33.2652H1117.81M1074.93 33.2652L1066.58 30.7105M1074.93 33.2652H1032.05M1074.93 33.2652L1083.66 35.9356M1117.81 33.2652L1108.54 30.7105M1117.81 33.2652L1127.51 35.9356M1117.81 33.2652H1160.69M1066.58 30.7105H1108.54M1066.58 30.7105H1024.63M1066.58 30.7105L1058.59 28.2639M1108.54 30.7105L1099.65 28.2639M1108.54 30.7105H1150.49M1043.57 23.6688H1082.97M1043.57 23.6688L1036.51 21.5084M1043.57 23.6688H1004.18M1043.57 23.6688L1050.93 25.9186M1082.97 23.6688L1075.13 21.5084M1082.97 23.6688L1091.14 25.9186M1082.97 23.6688H1122.37M1036.51 21.5084H1075.13M1036.51 21.5084H997.902M1036.51 21.5084L1029.73 19.4325M1075.13 21.5084L1067.59 19.4325M1075.13 21.5084H1113.74M1016.93 15.5145H1053.37M1016.93 15.5145L1010.88 13.6639M1016.93 15.5145H980.493M1016.93 15.5145L1018.48 15.9879L1019.26 16.2266L1023.21 17.4359M1053.37 15.5145L1046.65 13.6639M1053.37 15.5145L1060.34 17.4359M1053.37 15.5145H1089.8M1010.88 13.6639H1046.65M1010.88 13.6639H975.118M1010.88 13.6639L1005.05 11.8803M1046.65 13.6639L1040.17 11.8803M1046.65 13.6639H1082.41M994.01 8.50003H1027.9M994.01 8.50003L988.771 6.89695M994.01 8.50003H960.119M994.01 8.50003L999.434 10.1601M1027.9 8.50003L1023.52 7.29269L1022.8 7.09427L1022.08 6.89695M1027.9 8.50003L1033.93 10.1601M1027.9 8.50003H1061.79M988.771 6.89695H1022.08M988.771 6.89695L984.334 5.53888L983.71 5.34817M988.771 6.89695H955.464M1022.08 6.89695H1055.39M1022.08 6.89695L1016.46 5.34817M1366.24 58.6443L1348.52 54.8911M1366.24 58.6443H1314.14M1366.24 58.6443L1376.63 60.8459M1366.24 58.6443H1376.63M1348.52 54.8911H1297.79M1348.52 54.8911L1331.71 51.3292M1348.52 54.8911H1376.63M1300.54 44.7237H1347.58M1300.54 44.7237L1286.06 41.6556M1300.54 44.7237H1253.5M1300.54 44.7237L1315.74 47.9444M1347.58 44.7237L1331.98 41.6556M1347.58 44.7237L1363.95 47.9444M1347.58 44.7237H1376.63M1286.06 41.6556H1331.98M1286.06 41.6556H1240.13M1286.06 41.6556L1272.24 38.7294M1331.98 41.6556L1317.11 38.7294M1331.98 41.6556H1376.63M1246.45 33.2652H1289.34M1246.45 33.2652L1234.4 30.7105M1246.45 33.2652H1203.57M1246.45 33.2652L1259.06 35.9356M1289.34 33.2652L1276.35 30.7105M1289.34 33.2652L1302.91 35.9356M1289.34 33.2652H1332.22M1234.4 30.7105H1276.35M1234.4 30.7105H1192.44M1234.4 30.7105L1222.85 28.2639M1276.35 30.7105L1263.92 28.2639M1276.35 30.7105H1318.3M1201.16 23.6688H1240.56M1201.16 23.6688L1190.97 21.5084M1201.16 23.6688H1161.76M1201.16 23.6688L1211.78 25.9186M1240.56 23.6688L1229.58 21.5084M1240.56 23.6688L1251.99 25.9186M1240.56 23.6688H1279.96M1190.97 21.5084H1229.58M1190.97 21.5084H1152.35M1190.97 21.5084L1181.17 19.4325M1229.58 21.5084L1219.03 19.4325M1229.58 21.5084H1268.19M1162.68 15.5145H1199.11M1162.68 15.5145L1153.94 13.6639M1162.68 15.5145H1126.24M1162.68 15.5145L1171.74 17.4359M1199.11 15.5145L1189.71 13.6639M1199.11 15.5145L1208.88 17.4359M1199.11 15.5145H1235.55M1153.94 13.6639H1189.71M1153.94 13.6639H1118.18M1153.94 13.6639L1145.52 11.8803M1189.71 13.6639L1180.64 11.8803M1189.71 13.6639H1225.47M1129.57 8.50003H1163.46M1129.57 8.50003L1122 6.89695M1129.57 8.50003H1095.68M1129.57 8.50003L1137.4 10.1601M1163.46 8.50003L1155.31 6.89695M1163.46 8.50003L1171.9 10.1601M1163.46 8.50003H1197.35M1122 6.89695H1155.31M1122 6.89695L1114.69 5.34817M1122 6.89695H1088.7M1155.31 6.89695H1188.62M1155.31 6.89695L1147.44 5.34817M1358.75 23.6688L1345.42 21.5084M1358.75 23.6688H1319.35M1358.75 23.6688L1372.64 25.9186M1358.75 23.6688H1376.63M1345.42 21.5084H1306.8M1345.42 21.5084L1332.6 19.4325M1345.42 21.5084H1376.63M1308.42 15.5145H1344.86M1308.42 15.5145L1297 13.6639M1308.42 15.5145H1271.99M1308.42 15.5145L1320.28 17.4359M1344.86 15.5145L1332.76 13.6639M1344.86 15.5145L1357.42 17.4359M1344.86 15.5145H1376.63M1297 13.6639H1332.76M1297 13.6639H1261.24M1297 13.6639L1285.99 11.8803M1332.76 13.6639L1321.11 11.8803M1332.76 13.6639H1368.53M1265.13 8.50003H1299.02M1265.13 8.50003L1255.24 6.89695M1265.13 8.50003H1231.24M1265.13 8.50003L1275.37 10.1601M1299.02 8.50003L1288.54 6.89695M1299.02 8.50003L1309.87 10.1601M1299.02 8.50003H1332.91M1255.24 6.89695H1288.54M1255.24 6.89695L1245.68 5.34817M1255.24 6.89695H1221.93M1288.54 6.89695H1321.85M1288.54 6.89695L1278.42 5.34817M1309.87 10.1601L1321.11 11.8803M1309.87 10.1601H1344.36M1309.87 10.1601H1275.37M1332.91 8.50003L1321.85 6.89695M1332.91 8.50003L1344.36 10.1601M1332.91 8.50003H1366.8M1321.85 6.89695H1355.16M1321.85 6.89695L1311.17 5.34817M1278.42 5.34817H1245.68M1278.42 5.34817H1311.17M1278.42 5.34817L1268.64 3.85064M1344.36 10.1601L1356.23 11.8803M1344.36 10.1601H1376.63M1366.8 8.50003L1355.16 6.89695M1366.8 8.50003L1376.63 9.85385M1366.8 8.50003H1376.63M1355.16 6.89695L1343.91 5.34817M1355.16 6.89695H1376.63M1311.17 5.34817H1343.91M1311.17 5.34817L1300.84 3.85064M1343.91 5.34817L1333.04 3.85064M1343.91 5.34817H1376.63M1321.11 11.8803H1356.23M1321.11 11.8803H1285.99M1368.53 13.6639L1356.23 11.8803M1368.53 13.6639L1376.63 14.838M1368.53 13.6639H1376.63M1356.23 11.8803H1376.63M1285.99 11.8803H1250.87M1285.99 11.8803L1275.37 10.1601M1275.37 10.1601H1240.88M1357.42 17.4359L1370.46 19.4325M1357.42 17.4359H1320.28M1357.42 17.4359H1376.63M1376.74 15.5145H1376.63M1370.46 19.4325H1332.6M1370.46 19.4325L1376.63 20.3761M1370.46 19.4325H1376.63M1332.6 19.4325H1294.74M1332.6 19.4325L1320.28 17.4359M1320.28 17.4359H1283.15M1171.9 10.1601L1180.64 11.8803M1171.9 10.1601H1206.39M1171.9 10.1601H1137.4M1197.35 8.50003L1188.62 6.89695M1197.35 8.50003L1206.39 10.1601M1197.35 8.50003H1231.24M1188.62 6.89695H1221.93M1188.62 6.89695L1180.18 5.34817M1147.44 5.34817H1180.18M1147.44 5.34817L1139.83 3.85064M1147.44 5.34817H1114.69M1206.39 10.1601L1215.76 11.8803M1206.39 10.1601H1240.88M1231.24 8.50003L1221.93 6.89695M1231.24 8.50003L1240.88 10.1601M1221.93 6.89695L1212.93 5.34817M1180.18 5.34817H1212.93M1180.18 5.34817L1172.03 3.85064M1240.88 10.1601L1250.87 11.8803M1245.68 5.34817H1212.93M1245.68 5.34817L1236.43 3.85064M1212.93 5.34817L1204.23 3.85064M1180.64 11.8803H1215.76M1180.64 11.8803H1145.52M1225.47 13.6639L1215.76 11.8803M1225.47 13.6639L1235.55 15.5145M1225.47 13.6639H1261.24M1215.76 11.8803H1250.87M1145.52 11.8803H1110.41M1145.52 11.8803L1137.4 10.1601M1250.87 11.8803L1261.24 13.6639M1137.4 10.1601H1102.91M1235.55 15.5145L1246.01 17.4359M1235.55 15.5145H1271.99M1261.24 13.6639L1271.99 15.5145M1271.99 15.5145L1283.15 17.4359M1208.88 17.4359L1219.03 19.4325M1208.88 17.4359H1246.01M1208.88 17.4359H1171.74M1246.01 17.4359L1256.89 19.4325M1246.01 17.4359H1283.15M1283.15 17.4359L1294.74 19.4325M1219.03 19.4325H1256.89M1219.03 19.4325H1181.17M1268.19 21.5084L1256.89 19.4325M1268.19 21.5084L1279.96 23.6688M1268.19 21.5084H1306.8M1256.89 19.4325H1294.74M1181.17 19.4325H1143.31M1181.17 19.4325L1171.74 17.4359M1294.74 19.4325L1306.8 21.5084M1171.74 17.4359H1134.61M1279.96 23.6688L1292.21 25.9186M1279.96 23.6688H1319.35M1306.8 21.5084L1319.35 23.6688M1319.35 23.6688L1332.42 25.9186M1251.99 25.9186L1263.92 28.2639M1251.99 25.9186H1292.21M1251.99 25.9186H1211.78M1292.21 25.9186L1304.98 28.2639M1292.21 25.9186H1332.42M1332.42 25.9186L1346.05 28.2639M1332.42 25.9186H1372.64M1372.64 25.9186H1376.63M1372.64 25.9186L1376.63 26.5655M1263.92 28.2639H1304.98M1263.92 28.2639H1222.85M1318.3 30.7105L1304.98 28.2639M1318.3 30.7105L1332.22 33.2652M1318.3 30.7105H1360.26M1304.98 28.2639H1346.05M1222.85 28.2639H1181.78M1222.85 28.2639L1211.78 25.9186M1346.05 28.2639L1360.26 30.7105M1346.05 28.2639H1376.63M1211.78 25.9186H1171.57M1332.22 33.2652L1346.76 35.9356M1332.22 33.2652H1375.1M1360.26 30.7105L1375.1 33.2652M1360.26 30.7105H1376.63M1376.84 28.2639H1376.63M1375.1 33.2652L1376.63 33.5288M1375.1 33.2652H1376.63M1302.91 35.9356L1317.11 38.7294M1302.91 35.9356H1346.76M1302.91 35.9356H1259.06M1346.76 35.9356L1361.97 38.7294M1346.76 35.9356H1376.63M1377 33.5926L1376.63 33.5288M1317.11 38.7294H1361.97M1317.11 38.7294H1272.24M1361.97 38.7294H1376.63M1361.97 38.7294L1376.63 41.4204M1272.24 38.7294H1227.38M1272.24 38.7294L1259.06 35.9356M1259.06 35.9356H1215.21M1363.95 47.9444H1315.74M1363.95 47.9444L1376.63 50.4394M1363.95 47.9444H1376.63M1376.98 44.7237H1376.63M1315.74 47.9444H1267.53M1315.74 47.9444L1331.71 51.3292M1376.77 50.4669L1376.63 50.4394M1033.93 10.1601L1040.17 11.8803M1033.93 10.1601H1068.42M1033.93 10.1601H999.434M1061.79 8.50003L1055.39 6.89695M1061.79 8.50003L1068.42 10.1601M1061.79 8.50003H1095.68M1055.39 6.89695H1088.7M1055.39 6.89695L1049.2 5.34817M1016.46 5.34817H1049.2M1016.46 5.34817L1014.4 4.78074L1011.02 3.85064M1016.46 5.34817H983.71M1068.42 10.1601L1075.29 11.8803M1068.42 10.1601H1102.91M1095.68 8.50003L1088.7 6.89695M1095.68 8.50003L1102.91 10.1601M1088.7 6.89695L1081.95 5.34817M1049.2 5.34817H1081.95M1049.2 5.34817L1043.22 3.85064M1102.91 10.1601L1110.41 11.8803M1114.69 5.34817L1107.63 3.85064M1114.69 5.34817H1081.95M1081.95 5.34817L1081.12 5.15801L1079.47 4.78074L1075.42 3.85064M1040.17 11.8803H1075.29M1040.17 11.8803H1005.05M1082.41 13.6639L1075.29 11.8803M1082.41 13.6639L1089.8 15.5145M1082.41 13.6639H1118.18M1075.29 11.8803H1110.41M1005.05 11.8803H969.938M1005.05 11.8803L999.434 10.1601M1110.41 11.8803L1118.18 13.6639M999.434 10.1601H964.941M1089.8 15.5145L1097.48 17.4359M1089.8 15.5145H1126.24M1118.18 13.6639L1119.17 13.8913L1126.24 15.5145M1126.24 15.5145L1134.61 17.4359M1060.34 17.4359L1061.23 17.6814L1067.59 19.4325M1060.34 17.4359H1097.48M1060.34 17.4359H1023.21M1097.48 17.4359L1105.45 19.4325M1097.48 17.4359H1134.61M1134.61 17.4359L1143.31 19.4325M1067.59 19.4325H1105.45M1067.59 19.4325H1029.73M1113.74 21.5084L1105.45 19.4325M1113.74 21.5084L1122.37 23.6688M1113.74 21.5084H1152.35M1105.45 19.4325H1143.31M1029.73 19.4325H991.872M1029.73 19.4325L1023.21 17.4359M1143.31 19.4325L1152.35 21.5084M1023.21 17.4359H986.074M1122.37 23.6688L1131.35 25.9186M1122.37 23.6688H1161.76M1152.35 21.5084L1161.76 23.6688M1161.76 23.6688L1171.57 25.9186M1091.14 25.9186L1099.65 28.2639M1091.14 25.9186H1131.35M1091.14 25.9186H1050.93M1131.35 25.9186L1140.72 28.2639M1131.35 25.9186H1171.57M1171.57 25.9186L1181.78 28.2639M1099.65 28.2639H1140.72M1099.65 28.2639H1058.59M1150.49 30.7105L1140.72 28.2639M1150.49 30.7105L1160.69 33.2652M1150.49 30.7105H1192.44M1140.72 28.2639H1181.78M1058.59 28.2639H1017.52M1058.59 28.2639L1050.93 25.9186M1181.78 28.2639L1192.44 30.7105M1050.93 25.9186H1010.71M1160.69 33.2652L1171.36 35.9356M1160.69 33.2652H1203.57M1192.44 30.7105L1203.57 33.2652M1203.57 33.2652L1215.21 35.9356M1127.51 35.9356L1137.65 38.7294M1127.51 35.9356H1171.36M1127.51 35.9356H1083.66M1171.36 35.9356L1182.51 38.7294M1171.36 35.9356H1215.21M1215.21 35.9356L1227.38 38.7294M1137.65 38.7294H1182.51M1137.65 38.7294H1092.78M1194.2 41.6556L1182.51 38.7294M1194.2 41.6556L1206.45 44.7237M1194.2 41.6556H1240.13M1182.51 38.7294H1227.38M1092.78 38.7294H1047.92M1092.78 38.7294L1083.66 35.9356M1227.38 38.7294L1240.13 41.6556M1083.66 35.9356H1039.81M1206.45 44.7237L1219.32 47.9444M1206.45 44.7237H1253.5M1240.13 41.6556L1253.5 44.7237M1253.5 44.7237L1267.53 47.9444M1171.11 47.9444L1183.39 51.3292M1171.11 47.9444H1219.32M1171.11 47.9444H1122.9M1219.32 47.9444L1232.83 51.3292M1219.32 47.9444H1267.53M1267.53 47.9444L1282.27 51.3292M1183.39 51.3292H1232.83M1183.39 51.3292H1133.96M1247.06 54.8911L1232.83 51.3292M1247.06 54.8911L1262.05 58.6443M1247.06 54.8911H1297.79M1232.83 51.3292H1282.27M1133.96 51.3292H1084.52M1133.96 51.3292L1122.9 47.9444M1282.27 51.3292L1297.79 54.8911M1282.27 51.3292H1331.71M1122.9 47.9444H1074.68M1262.05 58.6443L1277.86 62.605M1262.05 58.6443H1314.14M1297.79 54.8911L1314.14 58.6443M1331.71 51.3292H1376.63M1314.14 58.6443L1331.4 62.605M1224.33 62.605L1239.53 66.79M1224.33 62.605H1277.86M1224.33 62.605H1170.8M1277.86 62.605L1294.58 66.79M1277.86 62.605H1331.4M1331.4 62.605L1349.63 66.79M1331.4 62.605H1376.63M1239.53 66.79H1294.58M1239.53 66.79H1184.47M1312.27 71.22L1294.58 66.79M1312.27 71.22L1331.03 75.9163M1312.27 71.22H1368.93M1294.58 66.79H1349.63M1184.47 66.79H1129.42M1184.47 66.79L1170.8 62.605M1349.63 66.79L1368.93 71.22M1349.63 66.79H1376.63M1170.8 62.605H1117.27M1331.03 75.9163L1350.95 80.9044M1331.03 75.9163H1376.63M1368.93 71.22H1376.63M1368.93 71.22L1376.63 72.987M1290.77 80.9044L1310.04 86.2116M1290.77 80.9044H1350.95M1290.77 80.9044H1230.59M1350.95 80.9044L1372.14 86.2116M1350.95 80.9044H1376.63M1310.04 86.2116H1372.14M1310.04 86.2116H1247.93M1372.14 86.2116L1376.63 87.3355M1372.14 86.2116H1376.63M1247.93 86.2116H1185.83M1247.93 86.2116L1230.59 80.9044M1230.59 80.9044H1170.42M1376.03 104.389H1307.33M1376.03 104.389H1376.63M1376.03 104.389L1376.63 104.553M1307.33 104.389H1238.63M1307.33 104.389L1330.04 111.339M895.956 10.1601L897.345 10.7979L897.812 11.0125L899.703 11.8803M895.956 10.1601H930.448M895.956 10.1601H861.463M926.229 8.50003L923.161 7.29269L922.156 6.89695M926.229 8.50003L929.913 9.94933L930.448 10.1601M926.229 8.50003H960.119M922.156 6.89695H955.464M922.156 6.89695L918.219 5.34817M885.474 5.34817H918.219M885.474 5.34817L884.237 4.78074L882.212 3.85064M885.474 5.34817H852.728M930.448 10.1601L931.527 10.5843L934.82 11.8803M930.448 10.1601H964.941M960.119 8.50003L955.464 6.89695M960.119 8.50003L964.941 10.1601M955.464 6.89695L952.075 5.7304L950.965 5.34817M918.219 5.34817H950.965M918.219 5.34817L914.414 3.85064M964.941 10.1601L969.938 11.8803M983.71 5.34817L983.09 5.15801L978.817 3.85064M983.71 5.34817H950.965M950.965 5.34817L949.317 4.78074L946.615 3.85064M899.703 11.8803H934.82M899.703 11.8803H864.586M939.353 13.6639L934.82 11.8803M939.353 13.6639L944.056 15.5145M939.353 13.6639H975.118M934.82 11.8803H969.938M864.586 11.8803H829.468M864.586 11.8803L861.463 10.1601M969.938 11.8803L975.118 13.6639M861.463 10.1601H826.971M944.056 15.5145L947.086 16.7069L947.701 16.9486L948.939 17.4359M944.056 15.5145H980.493M975.118 13.6639L980.493 15.5145M980.493 15.5145L986.074 17.4359M911.805 17.4359L916.154 19.4325M911.805 17.4359H948.939M911.805 17.4359H874.671M948.939 17.4359L954.013 19.4325M948.939 17.4359H986.074M986.074 17.4359L991.872 19.4325M916.154 19.4325H954.013M916.154 19.4325H878.295M959.289 21.5084L955.967 20.2013L955.313 19.9437L954.013 19.4325M959.289 21.5084L964.78 23.6688M959.289 21.5084H997.902M954.013 19.4325H991.872M878.295 19.4325H840.436M878.295 19.4325L874.671 17.4359M991.872 19.4325L997.902 21.5084M874.671 17.4359H837.537M964.78 23.6688L970.498 25.9186M964.78 23.6688H1004.18M997.902 21.5084L1004.18 23.6688M1004.18 23.6688L1010.71 25.9186M930.283 25.9186L932.811 27.0788L933.451 27.3729L935.392 28.2639M930.283 25.9186H970.498M930.283 25.9186H890.069M970.498 25.9186L976.457 28.2639M970.498 25.9186H1010.71M1010.71 25.9186L1017.52 28.2639M935.392 28.2639H976.457M935.392 28.2639H894.327M982.675 30.7105L976.457 28.2639M982.675 30.7105L989.168 33.2652M982.675 30.7105H1024.63M976.457 28.2639H1017.52M894.327 28.2639H853.261M894.327 28.2639L893.245 27.6683L890.069 25.9186M1017.52 28.2639L1024.63 30.7105M890.069 25.9186H849.856M989.168 33.2652L995.954 35.9356M989.168 33.2652H1032.05M1024.63 30.7105L1032.05 33.2652M1032.05 33.2652L1039.81 35.9356M952.104 35.9356L958.19 38.7294M952.104 35.9356H995.954M952.104 35.9356H908.253M995.954 35.9356L1003.05 38.7294M995.954 35.9356H1039.81M1039.81 35.9356L1047.92 38.7294M958.19 38.7294H1003.05M958.19 38.7294H913.325M1010.49 41.6556L1003.05 38.7294M1010.49 41.6556L1018.29 44.7237M1010.49 41.6556H1056.42M1003.05 38.7294H1047.92M913.325 38.7294H868.46M913.325 38.7294L908.253 35.9356M1047.92 38.7294L1056.42 41.6556M908.253 35.9356H864.403M1018.29 44.7237L1026.47 47.9444M1018.29 44.7237H1065.33M1056.42 41.6556L1065.33 44.7237M1065.33 44.7237L1074.68 47.9444M978.264 47.9444L985.637 51.3292M978.264 47.9444H1026.47M978.264 47.9444H930.053M1026.47 47.9444L1035.08 51.3292M1026.47 47.9444H1074.68M1074.68 47.9444L1084.52 51.3292M985.637 51.3292H1035.08M985.637 51.3292H936.197M1044.13 54.8911L1035.08 51.3292M1044.13 54.8911L1053.67 58.6443M1044.13 54.8911H1094.86M1035.08 51.3292H1084.52M936.197 51.3292H886.758M936.197 51.3292L930.053 47.9444M1084.52 51.3292L1094.86 54.8911M930.053 47.9444H881.842M1053.67 58.6443L1063.73 62.605M1053.67 58.6443H1105.76M1094.86 54.8911L1105.76 58.6443M1105.76 58.6443L1117.27 62.605M1010.2 62.605L1019.32 66.79M1010.2 62.605H1063.73M1010.2 62.605H956.666M1063.73 62.605L1074.37 66.79M1063.73 62.605H1117.27M1117.27 62.605L1129.42 66.79M1019.32 66.79H1074.37M1019.32 66.79H964.263M1085.63 71.22L1074.37 66.79M1085.63 71.22L1097.56 75.9163M1085.63 71.22H1142.29M1074.37 66.79H1129.42M964.263 66.79H909.211M964.263 66.79L956.666 62.605M1129.42 66.79L1142.29 71.22M956.666 62.605H903.133M1097.56 75.9163L1110.24 80.9044M1097.56 75.9163H1155.93M1142.29 71.22L1155.93 75.9163M1155.93 75.9163L1170.42 80.9044M1050.06 80.9044L1061.62 86.2116M1050.06 80.9044H1110.24M1050.06 80.9044H989.885M1110.24 80.9044L1123.73 86.2116M1110.24 80.9044H1170.42M1170.42 80.9044L1185.83 86.2116M1061.62 86.2116H1123.73M1061.62 86.2116H999.519M1138.11 91.8699L1123.73 86.2116M1138.11 91.8699L1153.47 97.9154M1138.11 91.8699H1202.26M1123.73 86.2116H1185.83M999.519 86.2116H937.415M999.519 86.2116L989.885 80.9044M1185.83 86.2116L1202.26 91.8699M989.885 80.9044H929.708M1153.47 97.9154L1169.92 104.389M1153.47 97.9154H1219.82M1202.26 91.8699L1219.82 97.9154M1219.82 97.9154L1238.63 104.389M1101.22 104.389L1116.36 111.339M1101.22 104.389H1169.92M1101.22 104.389H1032.52M1169.92 104.389L1187.58 111.339M1169.92 104.389H1238.63M1238.63 104.389L1258.81 111.339M1116.36 111.339H1187.58M1116.36 111.339H1045.13M1206.59 118.818L1187.58 111.339M1206.59 118.818L1227.11 126.89M1206.59 118.818H1280.53M1187.58 111.339H1258.81M1045.13 111.339H973.905M1045.13 111.339L1032.52 104.389M1258.81 111.339L1280.53 118.818M1258.81 111.339H1330.04M1032.52 104.389H963.813M1227.11 126.89L1249.31 135.628M1227.11 126.89H1303.98M1280.53 118.818L1303.98 126.89M1330.04 111.339H1376.63M1303.98 126.89L1329.36 135.628M1303.98 126.89H1376.63M1169.27 135.628L1189.94 145.119M1169.27 135.628H1249.31M1169.27 135.628H1089.22M1249.31 135.628L1273.43 145.119M1249.31 135.628H1329.36M1329.36 135.628L1356.92 145.119M1329.36 135.628H1376.63M1189.94 145.119H1273.43M1189.94 145.119H1106.45M1299.72 155.463L1273.43 145.119M1299.72 155.463L1328.49 166.782M1299.72 155.463H1376.63M1273.43 145.119H1356.92M1106.45 145.119H1022.96M1106.45 145.119L1089.22 135.628M1356.92 145.119H1376.63M1356.92 145.119L1376.63 151.903M1089.22 135.628H1009.18M1328.49 166.782L1360.1 179.22M1328.49 166.782H1376.63M1264.23 179.22L1294.14 192.951M1264.23 179.22H1360.1M1264.23 179.22H1168.36M1360.1 179.22L1376.63 185.725M1360.1 179.22H1376.63M1294.14 192.951H1193.28M1294.14 192.951L1376.63 192.951M1193.28 192.951H1092.43M1193.28 192.951L1168.36 179.22M1168.36 179.22H1072.48M757.985 10.1601L758.139 10.3718L758.293 10.5843L758.449 10.7979L758.604 11.0125L759.076 11.6618L759.234 11.8803M757.985 10.1601H792.478M757.985 10.1601H723.493M790.67 8.50003L789.355 7.29269L788.924 6.89695M790.67 8.50003L791.793 9.53072L792.478 10.1601M790.67 8.50003H824.56M788.924 6.89695H822.232M788.924 6.89695L787.653 5.7304L787.236 5.34817M754.491 5.34817L754.354 5.15801L753.808 4.40622L753.404 3.85064M754.491 5.34817H787.236M754.491 5.34817H721.746M792.478 10.1601L792.708 10.3718L792.94 10.5843L793.172 10.7979L793.407 11.0125L794.351 11.8803M792.478 10.1601H826.971M824.56 8.50003L822.806 7.29269L822.232 6.89695M824.56 8.50003L826.971 10.1601M822.232 6.89695L821.097 6.11595L820.259 5.53888L819.983 5.34817M787.236 5.34817L787.03 5.15801L786.619 4.78074L786.211 4.40622L786.009 4.2202L785.605 3.85064M787.236 5.34817H819.983M826.971 10.1601L828.836 11.4444L829.468 11.8803M852.728 5.34817L850.681 4.2202L850.01 3.85064M852.728 5.34817H819.983M819.983 5.34817L818.076 4.03501L817.807 3.85064M759.234 11.8803H794.351M759.234 11.8803H724.117M796.294 13.6639L794.351 11.8803M796.294 13.6639L798.31 15.5145M796.294 13.6639H832.058M794.351 11.8803H829.468M724.117 11.8803H689M724.117 11.8803L723.493 10.1601M829.468 11.8803L832.058 13.6639M723.493 10.1601H689M798.31 15.5145L798.826 15.9879L799.609 16.7069L800.402 17.4359M798.31 15.5145H834.747M832.058 13.6639L832.389 13.8913L834.747 15.5145M834.747 15.5145L835.089 15.7507L835.434 15.9879L835.78 16.2266L837.537 17.4359M763.268 17.4359L764.718 19.4325M763.268 17.4359H800.402M763.268 17.4359H726.134M800.402 17.4359L802.577 19.4325M800.402 17.4359H837.537M837.537 17.4359L839.7 18.9259L840.068 19.1787L840.436 19.4325M764.718 19.4325H802.577M764.718 19.4325H726.859M804.838 21.5084L805.127 21.7738L805.418 22.0403L805.709 22.3085L807.191 23.6688M804.838 21.5084L803.697 20.4601L803.414 20.2013L803.134 19.9437L802.577 19.4325M804.838 21.5084H843.451M802.577 19.4325H840.436M726.859 19.4325H689M726.859 19.4325L726.134 17.4359M840.436 19.4325L843.451 21.5084M726.134 17.4359H689M807.191 23.6688L809.33 25.6323L809.642 25.9186M807.191 23.6688H846.588M843.451 21.5084L844.224 22.0403L846.588 23.6688M846.588 23.6688L847.798 24.5016L849.856 25.9186M769.428 25.9186L770.271 27.0788L770.484 27.3729L771.131 28.2639M769.428 25.9186H809.642M769.428 25.9186H729.214M809.642 25.9186L812.196 28.2639M809.642 25.9186H849.856M849.856 25.9186L853.261 28.2639M771.131 28.2639H812.196M771.131 28.2639H730.065M814.861 30.7105L812.196 28.2639M814.861 30.7105L817.643 33.2652M814.861 30.7105H856.815M812.196 28.2639H853.261M730.065 28.2639H689M730.065 28.2639L729.849 27.6683L729.423 26.4957L729.214 25.9186M853.261 28.2639L856.815 30.7105M729.214 25.9186H689M817.643 33.2652L819.812 35.2568L820.552 35.9356M817.643 33.2652H860.525M856.815 30.7105L860.525 33.2652M860.525 33.2652L862.442 34.5855L864.403 35.9356M776.701 35.9356L778.73 38.7294M776.701 35.9356H820.552M776.701 35.9356H732.851M820.552 35.9356L823.595 38.7294M820.552 35.9356H864.403M864.403 35.9356L868.46 38.7294M778.73 38.7294H823.595M778.73 38.7294H733.865M826.782 41.6556L825.971 40.9112L823.595 38.7294M826.782 41.6556L830.124 44.7237M826.782 41.6556H872.71M823.595 38.7294H868.46M733.865 38.7294H689M733.865 38.7294L732.851 35.9356M868.46 38.7294L872.71 41.6556M732.851 35.9356H689M830.124 44.7237L833.631 47.9444M830.124 44.7237H877.165M872.71 41.6556L877.165 44.7237M877.165 44.7237L881.842 47.9444M785.421 47.9444L787.879 51.3292M785.421 47.9444H833.631M785.421 47.9444H737.211M833.631 47.9444L837.318 51.3292M833.631 47.9444H881.842M881.842 47.9444L886.758 51.3292M787.879 51.3292H837.318M787.879 51.3292H738.439M841.198 54.8911L837.318 51.3292M841.198 54.8911L845.286 58.6443M841.198 54.8911H891.93M837.318 51.3292H886.758M738.439 51.3292H689M738.439 51.3292L737.36 48.3584L737.211 47.9444M886.758 51.3292L891.93 54.8911M737.211 47.9444H689M845.286 58.6443L849.6 62.605M845.286 58.6443H897.381M891.93 54.8911L895.991 57.6875L897.381 58.6443M897.381 58.6443L903.133 62.605M796.066 62.605L799.105 66.79M796.066 62.605H849.6M796.066 62.605H742.533M849.6 62.605L854.158 66.79M849.6 62.605H903.133M903.133 62.605L909.211 66.79M799.105 66.79H854.158M799.105 66.79H744.053M858.983 71.22L854.158 66.79M858.983 71.22L864.098 75.9163M858.983 71.22H915.643M854.158 66.79H909.211M744.053 66.79H689M744.053 66.79L742.533 62.605M909.211 66.79L915.643 71.22M742.533 62.605H689M864.098 75.9163L869.531 80.9044M864.098 75.9163H922.464M915.643 71.22L922.464 75.9163M922.464 75.9163L929.708 80.9044M809.354 80.9044L813.207 86.2116M809.354 80.9044H869.531M809.354 80.9044H749.177M869.531 80.9044L875.311 86.2116M869.531 80.9044H929.708M929.708 80.9044L937.415 86.2116M813.207 86.2116H875.311M813.207 86.2116H751.104M881.474 91.8699L875.311 86.2116M881.474 91.8699L888.059 97.9154M881.474 91.8699H945.632M875.311 86.2116H937.415M751.104 86.2116H689M751.104 86.2116L749.177 80.9044M937.415 86.2116L945.632 91.8699M749.177 80.9044H689M888.059 97.9154L895.11 104.389M888.059 97.9154H954.411M945.632 91.8699L954.411 97.9154M954.411 97.9154L963.813 104.389M826.406 104.389L831.453 111.339M826.406 104.389H895.11M826.406 104.389H757.704M895.11 104.389L902.679 111.339M895.11 104.389H963.813M963.813 104.389L973.905 111.339M831.453 111.339H902.679M831.453 111.339H760.226M910.825 118.818L902.679 111.339M910.825 118.818L919.617 126.89M910.825 118.818H984.767M902.679 111.339H973.905M760.226 111.339H689M760.226 111.339L757.704 104.389M973.905 111.339L984.767 118.818M757.704 104.389H689M919.617 126.89L929.135 135.628M919.617 126.89H996.489M984.767 118.818L996.489 126.89M996.489 126.89L1009.18 135.628M849.089 135.628L855.981 145.119M849.089 135.628H929.135M849.089 135.628H769.045M929.135 135.628L939.471 145.119M929.135 135.628H1009.18M1009.18 135.628L1022.96 145.119M855.981 145.119H939.471M855.981 145.119H772.49M950.738 155.463L939.471 145.119M950.738 155.463L963.066 166.782M950.738 155.463H1037.98M939.471 145.119H1022.96M772.49 145.119H689M772.49 145.119L769.045 135.628M1022.96 145.119L1037.98 155.463M769.045 135.628H689M963.066 166.782L976.613 179.22M963.066 166.782H1054.42M1037.98 155.463L1054.42 166.782M1054.42 166.782L1072.48 179.22M880.742 179.22L890.713 192.951M880.742 179.22H976.613M880.742 179.22H784.871M976.613 179.22L991.569 192.951M976.613 179.22H1072.48M1072.48 179.22L1092.43 192.951M991.569 192.951H890.713M991.569 192.951H1092.43M890.713 192.951H789.857M789.857 192.951H689M789.857 192.951L784.871 179.22M784.871 179.22H689M620.015 10.1601L619.861 10.3718L619.707 10.5843L619.552 10.7979L619.396 11.0125L619.082 11.4444L618.924 11.6618L618.766 11.8803M620.015 10.1601H654.508M620.015 10.1601H585.522M655.11 8.50003L655.692 6.89695M655.11 8.50003L654.508 10.1601M655.11 8.50003H689M655.692 6.89695L655.763 6.70047L655.835 6.50479L655.905 6.30996L656.255 5.34817M655.692 6.89695H689M623.509 5.34817L623.647 5.15801L624.192 4.40622L624.596 3.85064M623.509 5.34817H656.255M623.509 5.34817H590.764M654.508 10.1601L654.43 10.3718L654.354 10.5843L654.275 10.7979L653.883 11.8803M654.508 10.1601H689M689 8.50003V6.89695M689 8.50003V10.1601M689 6.89695V5.34817M656.255 5.34817H689M656.255 5.34817L656.46 4.78074L656.529 4.59307L656.798 3.85064M689 10.1601V11.8803M721.746 5.34817L721.54 4.78074L721.471 4.59307L721.404 4.40622L721.336 4.2202L721.269 4.03501L721.202 3.85064M721.746 5.34817H689M689 5.34817V3.85064M618.766 11.8803H653.883M618.766 11.8803H583.649M653.235 13.6639L653.152 13.8913L653.07 14.12L652.564 15.5145M653.235 13.6639L653.883 11.8803M653.235 13.6639H689M653.883 11.8803H689M583.649 11.8803H548.532M583.649 11.8803L584.123 11.4444L584.359 11.228L584.593 11.0125L584.828 10.7979L585.06 10.5843L585.292 10.3718L585.522 10.1601M689 11.8803V13.6639M585.522 10.1601H551.029M652.564 15.5145L651.866 17.4359M652.564 15.5145H689M689 13.6639V15.5145M689 15.5145V17.4359M614.732 17.4359L613.282 19.4325M614.732 17.4359H651.866M614.732 17.4359H577.598M651.866 17.4359L651.141 19.4325M651.866 17.4359H689M689 17.4359V19.4325M613.282 19.4325H651.141M613.282 19.4325H575.423M650.387 21.5084L651.141 19.4325M650.387 21.5084L649.603 23.6688M650.387 21.5084H689M651.141 19.4325H689M575.423 19.4325H537.564M575.423 19.4325L577.598 17.4359M689 19.4325V21.5084M577.598 17.4359H540.463M649.603 23.6688L649.301 24.5016L648.994 25.3473L648.786 25.9186M649.603 23.6688H689M689 21.5084V23.6688M689 23.6688V25.9186M608.572 25.9186L607.729 27.0788L607.517 27.3729L606.869 28.2639M608.572 25.9186H648.786M608.572 25.9186H568.358M648.786 25.9186L648.577 26.4957L648.151 27.6683L647.935 28.2639M648.786 25.9186H689M689 25.9186V28.2639M606.869 28.2639H647.935M606.869 28.2639H565.804M647.047 30.7105L647.159 30.3988L647.935 28.2639M647.047 30.7105L646.119 33.2652M647.047 30.7105H689M647.935 28.2639H689M565.804 28.2639H524.739M565.804 28.2639L568.358 25.9186M689 28.2639V30.7105M568.358 25.9186H528.144M646.119 33.2652L645.149 35.9356M646.119 33.2652H689M689 30.7105V33.2652M689 33.2652V35.9356M601.299 35.9356L599.27 38.7294M601.299 35.9356H645.149M601.299 35.9356H557.448M645.149 35.9356L644.135 38.7294M645.149 35.9356H689M689 35.9356V38.7294M599.27 38.7294H644.135M599.27 38.7294H554.405M643.073 41.6556L644.135 38.7294M643.073 41.6556L641.959 44.7237M643.073 41.6556H689M644.135 38.7294H689M554.405 38.7294H509.54M554.405 38.7294L557.448 35.9356M689 38.7294V41.6556M557.448 35.9356H513.597M641.959 44.7237L640.789 47.9444M641.959 44.7237H689M689 41.6556V44.7237M689 44.7237V47.9444M592.579 47.9444L590.121 51.3292M592.579 47.9444H640.789M592.579 47.9444H544.369M640.789 47.9444L639.561 51.3292M640.789 47.9444H689M689 47.9444V51.3292M590.121 51.3292H639.561M590.121 51.3292H540.682M638.267 54.8911L639.561 51.3292M638.267 54.8911L636.905 58.6443M638.267 54.8911H689M639.561 51.3292H689M540.682 51.3292H491.242M540.682 51.3292L544.369 47.9444M689 51.3292V54.8911M544.369 47.9444H496.158M636.905 58.6443L635.467 62.605M636.905 58.6443H689M689 54.8911V58.6443M689 58.6443V62.605M581.934 62.605L578.895 66.79M581.934 62.605H635.467M581.934 62.605H528.401M635.467 62.605L633.947 66.79M635.467 62.605H689M689 62.605V66.79M578.895 66.79H633.947M578.895 66.79H523.842M632.339 71.22L633.947 66.79M632.339 71.22L630.634 75.9163M632.339 71.22H689M633.947 66.79H689M523.842 66.79H468.79M523.842 66.79L528.401 62.605M689 66.79V71.22M528.401 62.605H474.867M630.634 75.9163L628.823 80.9044M630.634 75.9163H689M689 71.22V75.9163M689 75.9163V80.9044M568.646 80.9044L564.793 86.2116M568.646 80.9044H628.823M568.646 80.9044H508.469M628.823 80.9044L626.896 86.2116M628.823 80.9044H689M689 80.9044V86.2116M564.793 86.2116H626.896M564.793 86.2116H502.689M624.842 91.8699L626.896 86.2116M624.842 91.8699L622.647 97.9154M624.842 91.8699H689M626.896 86.2116H689M502.689 86.2116H440.585M502.689 86.2116L508.469 80.9044M689 86.2116V91.8699M508.469 80.9044H448.292M622.647 97.9154L620.297 104.389M622.647 97.9154H689M689 91.8699V97.9154M689 97.9154V104.389M551.594 104.389L546.548 111.339M551.594 104.389H620.297M551.594 104.389H482.89M620.297 104.389L617.774 111.339M620.297 104.389H689M689 104.389V111.339M546.548 111.339H617.774M546.548 111.339H475.321M615.058 118.818L617.774 111.339M615.058 118.818L612.128 126.89M615.058 118.818H689M617.774 111.339H689M475.321 111.339H404.095M475.321 111.339L482.89 104.389M689 111.339V118.818M482.89 104.389H414.187M612.128 126.89L608.955 135.628M612.128 126.89H689M689 118.818V126.89M689 126.89V135.628M528.911 135.628L522.019 145.119M528.911 135.628H608.955M528.911 135.628H448.865M608.955 135.628L605.51 145.119M608.955 135.628H689M689 135.628V145.119M522.019 145.119H605.51M522.019 145.119H438.529M601.754 155.463L605.51 145.119M601.754 155.463L597.645 166.782M601.754 155.463H689M605.51 145.119H689M438.529 145.119H355.038M438.529 145.119L448.865 135.628M689 145.119V155.463M448.865 135.628H368.821M597.645 166.782L593.129 179.22M597.645 166.782H689M689 155.463V166.782M689 166.782V179.22M497.258 179.22L487.287 192.951M497.258 179.22H593.129M497.258 179.22H401.387M593.129 179.22L588.143 192.951M593.129 179.22H689M689 179.22V192.951M588.143 192.951H487.287M588.143 192.951H689M487.287 192.951H386.431M386.431 192.951H285.574M386.431 192.951L401.387 179.22M401.387 179.22H305.515M482.044 10.1601L480.188 11.0125L478.297 11.8803M482.044 10.1601H516.537M482.044 10.1601H447.552M519.55 8.50003L522.46 6.89695M519.55 8.50003L516.537 10.1601M519.55 8.50003H553.44M522.46 6.89695H555.768M522.46 6.89695L524.578 5.7304L525.272 5.34817M492.526 5.34817H525.272M492.526 5.34817L493.763 4.78074L495.788 3.85064M492.526 5.34817H459.781M516.537 10.1601L513.415 11.8803M516.537 10.1601H551.029M553.44 8.50003L555.768 6.89695M553.44 8.50003L551.029 10.1601M555.768 6.89695L556.903 6.11595L557.741 5.53888L558.017 5.34817M525.272 5.34817H558.017M525.272 5.34817L527.319 4.2202L527.99 3.85064M551.029 10.1601L549.164 11.4444L548.532 11.8803M590.764 5.34817L590.97 5.15801L591.381 4.78074L591.991 4.2202L592.395 3.85064M590.764 5.34817H558.017M558.017 5.34817L558.293 5.15801L558.842 4.78074L560.192 3.85064M478.297 11.8803H513.415M478.297 11.8803H443.18M510.176 13.6639L510.588 13.4374L510.997 13.2117L512.616 12.3199L513.415 11.8803M510.176 13.6639L507.669 15.0452L506.817 15.5145M510.176 13.6639H545.942M513.415 11.8803H548.532M443.18 11.8803H408.062M443.18 11.8803L446.473 10.5843L447.552 10.1601M548.532 11.8803L545.942 13.6639M447.552 10.1601H413.059M506.817 15.5145L506.389 15.7507L505.957 15.9879L504.653 16.7069L504.213 16.9486L503.329 17.4359M506.817 15.5145H543.253M545.942 13.6639L545.611 13.8913L543.253 15.5145M543.253 15.5145L542.911 15.7507L542.566 15.9879L542.22 16.2266L540.463 17.4359M466.195 17.4359L461.846 19.4325M466.195 17.4359H503.329M466.195 17.4359H429.061M503.329 17.4359L499.705 19.4325M503.329 17.4359H540.463M540.463 17.4359L537.564 19.4325M461.846 19.4325H499.705M461.846 19.4325H423.987M495.937 21.5084L499.705 19.4325M495.937 21.5084L492.015 23.6688M495.937 21.5084H534.549M499.705 19.4325H537.564M423.987 19.4325H386.128M423.987 19.4325L429.061 17.4359M537.564 19.4325L534.549 21.5084M429.061 17.4359H391.926M492.015 23.6688L487.931 25.9186M492.015 23.6688H531.412M534.549 21.5084L533.776 22.0403L531.412 23.6688M531.412 23.6688L530.202 24.5016L528.974 25.3473L528.144 25.9186M447.716 25.9186L445.189 27.0788L442.608 28.2639M447.716 25.9186H487.931M447.716 25.9186H407.502M487.931 25.9186L483.673 28.2639M487.931 25.9186H528.144M528.144 25.9186L524.739 28.2639M442.608 28.2639H483.673M442.608 28.2639H401.543M479.232 30.7105L483.673 28.2639M479.232 30.7105L474.594 33.2652M479.232 30.7105H521.185M483.673 28.2639H524.739M401.543 28.2639H360.477M401.543 28.2639L407.502 25.9186M524.739 28.2639L521.185 30.7105M407.502 25.9186H367.289M474.594 33.2652L473.402 33.9216L469.747 35.9356M474.594 33.2652H517.475M521.185 30.7105L517.475 33.2652M517.475 33.2652L517 33.5926L515.558 34.5855L513.597 35.9356M425.896 35.9356L419.81 38.7294M425.896 35.9356H469.747M425.896 35.9356H382.046M469.747 35.9356L464.675 38.7294M469.747 35.9356H513.597M513.597 35.9356L509.54 38.7294M419.81 38.7294H464.675M419.81 38.7294H374.945M459.363 41.6556L462.713 39.8108L464.675 38.7294M459.363 41.6556L453.793 44.7237M459.363 41.6556H505.29M464.675 38.7294H509.54M374.945 38.7294H330.08M374.945 38.7294L382.046 35.9356M509.54 38.7294L505.29 41.6556M382.046 35.9356H338.195M453.793 44.7237L447.947 47.9444M453.793 44.7237H500.835M505.29 41.6556L500.835 44.7237M500.835 44.7237L496.158 47.9444M399.736 47.9444L392.363 51.3292M399.736 47.9444H447.947M399.736 47.9444H351.526M447.947 47.9444L441.803 51.3292M447.947 47.9444H496.158M496.158 47.9444L491.242 51.3292M392.363 51.3292H441.803M392.363 51.3292H342.924M435.337 54.8911L441.803 51.3292M435.337 54.8911L428.524 58.6443M435.337 54.8911H486.07M441.803 51.3292H491.242M342.924 51.3292H293.485M342.924 51.3292L351.526 47.9444M491.242 51.3292L486.07 54.8911M351.526 47.9444H303.316M428.524 58.6443L421.334 62.605M428.524 58.6443H480.619M486.07 54.8911L480.619 58.6443M480.619 58.6443L474.867 62.605M367.801 62.605L358.684 66.79M367.801 62.605H421.334M367.801 62.605H314.268M421.334 62.605L413.737 66.79M421.334 62.605H474.867M474.867 62.605L468.79 66.79M358.684 66.79H413.737M358.684 66.79H303.632M405.695 71.22L413.737 66.79M405.695 71.22L397.17 75.9163M405.695 71.22H462.357M413.737 66.79H468.79M303.632 66.79H248.579M303.632 66.79L314.268 62.605M468.79 66.79L462.357 71.22M314.268 62.605H260.735M397.17 75.9163L388.115 80.9044M397.17 75.9163H455.536M462.357 71.22L455.536 75.9163M455.536 75.9163L448.292 80.9044M327.939 80.9044L316.378 86.2116M327.939 80.9044H388.115M327.939 80.9044H267.762M388.115 80.9044L378.481 86.2116M388.115 80.9044H448.292M448.292 80.9044L440.585 86.2116M316.378 86.2116H378.481M316.378 86.2116H254.274M368.21 91.8699L378.481 86.2116M368.21 91.8699L357.235 97.9154M368.21 91.8699H432.368M378.481 86.2116H440.585M254.274 86.2116H192.17M254.274 86.2116L267.762 80.9044M440.585 86.2116L432.368 91.8699M267.762 80.9044H207.585M357.235 97.9154L345.484 104.389M357.235 97.9154H423.589M432.368 91.8699L423.589 97.9154M423.589 97.9154L414.187 104.389M276.78 104.389L261.642 111.339M276.78 104.389H345.484M276.78 104.389H208.077M345.484 104.389L332.869 111.339M345.484 104.389H414.187M414.187 104.389L404.095 111.339M261.642 111.339H332.869M261.642 111.339H190.416M319.292 118.818L332.869 111.339M319.292 118.818L304.639 126.89M319.292 118.818H393.233M332.869 111.339H404.095M190.416 111.339H119.19M190.416 111.339L208.077 104.389M404.095 111.339L393.233 118.818M208.077 104.389H139.373M304.639 126.89L288.776 135.628M304.639 126.89H381.511M393.233 118.818L381.511 126.89M381.511 126.89L368.821 135.628M208.732 135.628L188.057 145.119M208.732 135.628H288.776M208.732 135.628H128.686M288.776 135.628L271.548 145.119M288.776 135.628H368.821M368.821 135.628L355.038 145.119M188.057 145.119H271.548M188.057 145.119H104.567M252.77 155.463L271.548 145.119M252.77 155.463L232.223 166.782M252.77 155.463H340.016M271.548 145.119H355.038M104.567 145.119H21.0766M104.567 145.119L128.686 135.628M355.038 145.119L340.016 155.463M128.686 135.628H48.642M232.223 166.782L209.645 179.22M232.223 166.782H323.579M340.016 155.463L323.579 166.782M323.579 166.782L305.515 179.22M113.773 179.22L83.8615 192.951M113.773 179.22H209.645M113.773 179.22H17.9021M209.645 179.22L184.718 192.951M209.645 179.22H305.515M305.515 179.22L285.574 192.951M184.718 192.951H83.8615M184.718 192.951H285.574M83.8615 192.951L1.37032 192.951M17.9021 179.22L1.37032 185.725M17.9021 179.22H1.37032M344.073 10.1601L337.828 11.8803M344.073 10.1601H378.566M344.073 10.1601H309.581M383.99 8.50003L389.229 6.89695M383.99 8.50003L378.566 10.1601M383.99 8.50003H417.881M389.229 6.89695H422.536M389.229 6.89695L394.29 5.34817M361.544 5.34817H394.29M361.544 5.34817L363.604 4.78074L366.981 3.85064M361.544 5.34817H328.798M378.566 10.1601L372.945 11.8803M378.566 10.1601H413.059M417.881 8.50003L422.536 6.89695M417.881 8.50003L413.059 10.1601M422.536 6.89695L425.925 5.7304L427.035 5.34817M394.29 5.34817L394.91 5.15801L399.183 3.85064M394.29 5.34817H427.035M413.059 10.1601L408.062 11.8803M459.781 5.34817L463.586 3.85064M459.781 5.34817H427.035M427.035 5.34817L428.684 4.78074L431.385 3.85064M337.828 11.8803H372.945M337.828 11.8803H302.711M367.118 13.6639L372.945 11.8803M367.118 13.6639L361.071 15.5145M367.118 13.6639H402.882M372.945 11.8803H408.062M302.711 11.8803H267.594M302.711 11.8803L309.581 10.1601M408.062 11.8803L402.882 13.6639M309.581 10.1601H275.088M361.071 15.5145L359.523 15.9879L354.792 17.4359M361.071 15.5145H397.507M402.882 13.6639L397.507 15.5145M397.507 15.5145L391.926 17.4359M317.658 17.4359L316.767 17.6814L310.41 19.4325M317.658 17.4359H354.792M317.658 17.4359H280.524M354.792 17.4359L348.269 19.4325M354.792 17.4359H391.926M391.926 17.4359L391.214 17.6814L386.128 19.4325M310.41 19.4325H348.269M310.41 19.4325H272.551M341.486 21.5084L348.269 19.4325M341.486 21.5084L334.427 23.6688M341.486 21.5084H380.098M348.269 19.4325H386.128M272.551 19.4325H234.692M272.551 19.4325L280.524 17.4359M386.128 19.4325L380.098 21.5084M280.524 17.4359H243.389M334.427 23.6688L327.075 25.9186M334.427 23.6688H373.824M380.098 21.5084L373.824 23.6688M373.824 23.6688L367.289 25.9186M286.861 25.9186L278.347 28.2639M286.861 25.9186H327.075M286.861 25.9186H246.647M327.075 25.9186L319.412 28.2639M327.075 25.9186H367.289M367.289 25.9186L360.477 28.2639M278.347 28.2639H319.412M278.347 28.2639H237.281M311.418 30.7105L319.412 28.2639M311.418 30.7105L303.069 33.2652M311.418 30.7105H353.371M319.412 28.2639H360.477M237.281 28.2639H196.216M237.281 28.2639L246.647 25.9186M360.477 28.2639L353.371 30.7105M246.647 25.9186H206.433M303.069 33.2652L294.344 35.9356M303.069 33.2652H345.951M353.371 30.7105L345.951 33.2652M345.951 33.2652L338.195 35.9356M250.494 35.9356L240.35 38.7294M250.494 35.9356H294.344M250.494 35.9356H206.643M294.344 35.9356L285.215 38.7294M294.344 35.9356H338.195M338.195 35.9356L330.08 38.7294M240.35 38.7294H285.215M240.35 38.7294H195.485M275.654 41.6556L285.215 38.7294M275.654 41.6556L265.629 44.7237M275.654 41.6556H321.581M285.215 38.7294H330.08M195.485 38.7294H150.62M195.485 38.7294L206.643 35.9356M330.08 38.7294L321.581 41.6556M206.643 35.9356H162.792M265.629 44.7237L255.105 47.9444M265.629 44.7237H312.67M321.581 41.6556L312.67 44.7237M312.67 44.7237L303.316 47.9444M206.894 47.9444L194.606 51.3292M206.894 47.9444H255.105M206.894 47.9444H158.684M255.105 47.9444L244.045 51.3292M255.105 47.9444H303.316M303.316 47.9444L293.485 51.3292M194.606 51.3292H244.045M194.606 51.3292H145.166M232.406 54.8911L244.045 51.3292M232.406 54.8911L220.143 58.6443M232.406 54.8911H283.139M244.045 51.3292H293.485M145.166 51.3292H95.7267M145.166 51.3292L158.684 47.9444M293.485 51.3292L283.139 54.8911M158.684 47.9444H110.474M220.143 58.6443L207.202 62.605M220.143 58.6443H272.238M283.139 54.8911L272.238 58.6443M272.238 58.6443L260.735 62.605M153.668 62.605L138.474 66.79M153.668 62.605H207.202M153.668 62.605H100.135M207.202 62.605L193.526 66.79M207.202 62.605H260.735M260.735 62.605L248.579 66.79M138.474 66.79H193.526M138.474 66.79H83.421M179.052 71.22L193.526 66.79M179.052 71.22L163.706 75.9163M179.052 71.22H235.712M193.526 66.79H248.579M83.421 66.79H28.3684M83.421 66.79L100.135 62.605M248.579 66.79L235.712 71.22M100.135 62.605H46.602M163.706 75.9163L147.408 80.9044M163.706 75.9163H222.072M235.712 71.22L222.072 75.9163M222.072 75.9163L207.585 80.9044M87.2309 80.9044L67.963 86.2116M87.2309 80.9044H147.408M87.2309 80.9044H27.054M147.408 80.9044L130.067 86.2116M147.408 80.9044H207.585M207.585 80.9044L192.17 86.2116M67.963 86.2116H130.067M67.963 86.2116H5.85925M111.577 91.8699L130.067 86.2116M111.577 91.8699L91.8237 97.9154M111.577 91.8699H175.735M130.067 86.2116H192.17M5.85925 86.2116L27.054 80.9044M5.85925 86.2116H1.37032M5.85925 86.2116L1.37032 87.3355M192.17 86.2116L175.735 91.8699M27.054 80.9044H1.37032M91.8237 97.9154L70.6705 104.389M91.8237 97.9154H158.176M175.735 91.8699L158.176 97.9154M158.176 97.9154L139.373 104.389M1.96698 104.389H70.6705M1.96698 104.389H1.37032M1.96698 104.389L1.37032 104.553M70.6705 104.389L47.963 111.339M70.6705 104.389H139.373M139.373 104.389L119.19 111.339M23.5249 118.818L47.963 111.339M23.5249 118.818H97.4666M23.5249 118.818H1.37032M23.5249 118.818L1.37032 125.598M47.963 111.339H119.19M47.963 111.339H1.37032M119.19 111.339L97.4666 118.818M97.4666 118.818L74.022 126.89M74.022 126.89L48.642 135.628M74.022 126.89H1.37032M48.642 135.628L21.0766 145.119M48.642 135.628H1.37032M21.0766 145.119H1.37032M21.0766 145.119L1.37032 151.903M206.103 10.1601L197.36 11.8803M206.103 10.1601H240.596M206.103 10.1601H171.61M248.431 8.50003L255.997 6.89695M248.431 8.50003L240.596 10.1601M248.431 8.50003H282.321M255.997 6.89695H289.304M255.997 6.89695L263.307 5.34817M230.562 5.34817H263.307M230.562 5.34817L238.173 3.85064M230.562 5.34817H197.816M240.596 10.1601L232.477 11.8803M240.596 10.1601H275.088M282.321 8.50003L289.304 6.89695M282.321 8.50003L275.088 10.1601M289.304 6.89695L296.053 5.34817M263.307 5.34817L264.203 5.15801L270.375 3.85064M263.307 5.34817H296.053M275.088 10.1601L267.594 11.8803M328.798 5.34817L334.778 3.85064M328.798 5.34817H296.053M296.053 5.34817L296.88 5.15801L302.576 3.85064M197.36 11.8803H232.477M197.36 11.8803H162.243M224.058 13.6639L232.477 11.8803M224.058 13.6639L215.324 15.5145M224.058 13.6639H259.824M232.477 11.8803H267.594M162.243 11.8803H127.126M162.243 11.8803L171.61 10.1601M267.594 11.8803L259.824 13.6639M171.61 10.1601H137.118M215.324 15.5145L206.255 17.4359M215.324 15.5145H251.761M259.824 13.6639L258.832 13.8913L251.761 15.5145M251.761 15.5145L243.389 17.4359M169.121 17.4359L158.974 19.4325M169.121 17.4359H206.255M169.121 17.4359H131.987M206.255 17.4359L196.833 19.4325M206.255 17.4359H243.389M243.389 17.4359L234.692 19.4325M158.974 19.4325H196.833M158.974 19.4325H121.115M187.035 21.5084L196.833 19.4325M187.035 21.5084L176.838 23.6688M187.035 21.5084H225.647M196.833 19.4325H234.692M121.115 19.4325H83.2556M121.115 19.4325L131.987 17.4359M234.692 19.4325L225.647 21.5084M131.987 17.4359H94.8529M176.838 23.6688L166.22 25.9186M176.838 23.6688H216.235M225.647 21.5084L216.235 23.6688M216.235 23.6688L206.433 25.9186M126.005 25.9186L114.085 28.2639M126.005 25.9186H166.22M126.005 25.9186H85.7912M166.22 25.9186L155.151 28.2639M166.22 25.9186H206.433M206.433 25.9186L196.216 28.2639M114.085 28.2639H155.151M114.085 28.2639H73.0199M143.603 30.7105L155.151 28.2639M143.603 30.7105L131.545 33.2652M143.603 30.7105H185.557M155.151 28.2639H196.216M73.0199 28.2639H31.9548M73.0199 28.2639L85.7912 25.9186M196.216 28.2639L185.557 30.7105M85.7912 25.9186H45.5777M131.545 33.2652L118.941 35.9356M131.545 33.2652H174.426M185.557 30.7105L174.426 33.2652M174.426 33.2652L162.792 35.9356M75.0907 35.9356L60.8904 38.7294M75.0907 35.9356H118.941M75.0907 35.9356H31.2407M118.941 35.9356L105.755 38.7294M118.941 35.9356H162.792M162.792 35.9356L150.62 38.7294M60.8904 38.7294H105.755M91.944 41.6556L105.755 38.7294M91.944 41.6556L77.4637 44.7237M91.944 41.6556H137.872M105.755 38.7294H150.62M150.62 38.7294L137.872 41.6556M31.2407 35.9356H1.37032M77.4637 44.7237L62.2628 47.9444M77.4637 44.7237H124.505M137.872 41.6556L124.505 44.7237M124.505 44.7237L110.474 47.9444M14.0521 47.9444H62.2628M14.0521 47.9444H1.37032M14.0521 47.9444L1.37032 50.4394M62.2628 47.9444L46.2869 51.3292M62.2628 47.9444H110.474M110.474 47.9444L95.7267 51.3292M29.4757 54.8911L46.2869 51.3292M29.4757 54.8911L11.7614 58.6443M29.4757 54.8911H80.2085M29.4757 54.8911H1.37032M46.2869 51.3292H95.7267M46.2869 51.3292H1.37032M95.7267 51.3292L80.2085 54.8911M1.23065 50.4669L1.37032 50.4394M11.7614 58.6443H63.8565M11.7614 58.6443H1.37032M11.7614 58.6443L1.37032 60.8459M80.2085 54.8911L63.8565 58.6443M63.8565 58.6443L46.602 62.605M46.602 62.605L28.3684 66.79M46.602 62.605H1.37032M9.06891 71.22L28.3684 66.79M9.06891 71.22H1.37032M9.06891 71.22L1.37032 72.987M28.3684 66.79H1.37032M68.1327 10.1601L56.8914 11.8803M68.1327 10.1601H102.625M68.1327 10.1601H33.6395M112.871 8.50003L122.765 6.89695M112.871 8.50003L102.625 10.1601M112.871 8.50003H146.761M122.765 6.89695H156.073M122.765 6.89695L132.324 5.34817M99.5789 5.34817H132.324M99.5789 5.34817L109.365 3.85064M99.5789 5.34817H66.8334M102.625 10.1601L92.0085 11.8803M102.625 10.1601H137.118M146.761 8.50003L156.073 6.89695M146.761 8.50003L137.118 10.1601M156.073 6.89695L165.07 5.34817M132.324 5.34817H165.07M132.324 5.34817L141.567 3.85064M137.118 10.1601L127.126 11.8803M197.816 5.34817L205.971 3.85064M197.816 5.34817H165.07M165.07 5.34817L173.769 3.85064M56.8914 11.8803H92.0085M56.8914 11.8803H21.7743M81 13.6639L92.0085 11.8803M81 13.6639L69.5782 15.5145M81 13.6639H116.765M92.0085 11.8803H127.126M21.7743 11.8803L33.6395 10.1601M21.7743 11.8803H1.37032M127.126 11.8803L116.765 13.6639M33.6395 10.1601H1.37032M69.5782 15.5145L57.7187 17.4359M69.5782 15.5145H106.015M116.765 13.6639L106.015 15.5145M106.015 15.5145L94.8529 17.4359M20.5846 17.4359L7.5375 19.4325M20.5846 17.4359H57.7187M20.5846 17.4359H1.37032M57.7187 17.4359L45.3965 19.4325M57.7187 17.4359H94.8529M94.8529 17.4359L83.2556 19.4325M32.5837 21.5084L45.3965 19.4325M32.5837 21.5084L19.2501 23.6688M32.5837 21.5084H71.1963M32.5837 21.5084H1.37032M45.3965 19.4325H7.5375M45.3965 19.4325H83.2556M7.5375 19.4325L1.37032 20.3761M7.5375 19.4325H1.37032M83.2556 19.4325L71.1963 21.5084M19.2501 23.6688L5.36359 25.9186M19.2501 23.6688H58.647M19.2501 23.6688H1.37032M71.1963 21.5084L58.647 23.6688M58.647 23.6688L45.5777 25.9186M5.36359 25.9186H45.5777M5.36359 25.9186L1.37032 26.5655M5.36359 25.9186H1.37032M45.5777 25.9186L31.9548 28.2639M17.7424 30.7105L31.9548 28.2639M17.7424 30.7105L2.90173 33.2652M17.7424 30.7105H1.37032M31.9548 28.2639H1.37032M1.15544 28.2639H1.37032M2.90173 33.2652H1.37032M2.90173 33.2652L1.37032 33.5288M1 33.5926L1.37032 33.5288M11.2013 8.50003L22.8408 6.89695M11.2013 8.50003H1.37032M11.2013 8.50003L1.37032 9.85385M22.8408 6.89695L34.0879 5.34817M22.8408 6.89695H1.37032M66.8334 5.34817L77.1629 3.85064M66.8334 5.34817H34.0879M34.0879 5.34817L44.961 3.85064M34.0879 5.34817H1.37032M1139.83 3.85064H1172.03M1139.83 3.85064H1107.63M1164.14 2.40217L1166.09 2.75988L1172.03 3.85064M1164.14 2.40217H1195.82M1172.03 3.85064H1204.23M1195.82 2.40217L1197.89 2.75988L1198.94 2.93956L1204.23 3.85064M1204.23 3.85064H1236.43M1236.43 3.85064H1268.64M1107.63 3.85064H1075.42M1268.64 3.85064H1300.84M1300.84 3.85064L1290.84 2.40217M1300.84 3.85064H1333.04M1290.84 2.40217H1322.52M1011.02 3.85064H1043.22M1011.02 3.85064H978.817M1037.44 2.40217L1038.86 2.75988L1039.58 2.93956L1043.22 3.85064M1037.44 2.40217H1069.11M1043.22 3.85064H1075.42M1069.11 2.40217L1075.42 3.85064M978.817 3.85064H946.615M882.212 3.85064H914.414M882.212 3.85064H850.01M910.732 2.40217L911.186 2.58047L911.641 2.75988L912.099 2.93956L914.414 3.85064M910.732 2.40217H942.408M914.414 3.85064H946.615M942.408 2.40217L946.615 3.85064M850.01 3.85064H817.807M753.404 3.85064H785.605M753.404 3.85064H721.202M784.028 2.40217L785.605 3.85064M784.028 2.40217H815.704M785.605 3.85064H817.807M815.704 2.40217L815.964 2.58047L816.224 2.75988L816.485 2.93956L817.807 3.85064M721.202 3.85064H689M624.596 3.85064H656.798M624.596 3.85064H592.395M657.324 2.40217L656.798 3.85064M657.324 2.40217H689M656.798 3.85064H689M689 2.40217V3.85064M592.395 3.85064H560.192M495.788 3.85064H527.99M495.788 3.85064H463.586M530.62 2.40217L529.971 2.75988L528.656 3.48384L527.99 3.85064M530.62 2.40217H562.296M527.99 3.85064H560.192M562.296 2.40217L562.036 2.58047L561.776 2.75988L561.515 2.93956L560.192 3.85064M463.586 3.85064H431.385M366.981 3.85064H399.183M366.981 3.85064H334.778M403.916 2.40217L402.747 2.75988L402.159 2.93956L399.183 3.85064M403.916 2.40217H435.592M399.183 3.85064H431.385M435.592 2.40217L435.073 2.58047L431.385 3.85064M334.778 3.85064H302.576M238.173 3.85064H270.375M238.173 3.85064H205.971M277.212 2.40217L275.523 2.75988L274.674 2.93956L270.375 3.85064M277.212 2.40217H308.888M270.375 3.85064H302.576M308.888 2.40217L308.11 2.58047L302.576 3.85064M205.971 3.85064H173.769M109.365 3.85064H141.567M109.365 3.85064H77.1629M150.507 2.40217L141.567 3.85064M150.507 2.40217H182.183M141.567 3.85064H173.769M182.183 2.40217L180.106 2.75988L179.06 2.93956L173.769 3.85064M77.1629 3.85064H44.961M23.8035 2.40217L12.7592 3.85064M23.8035 2.40217H55.4796M23.8035 2.40217H1.37032M12.7592 3.85064H44.961M12.7592 3.85064L1.37032 5.3445M12.7592 3.85064H1.37032M55.4796 2.40217L52.8824 2.75988L44.961 3.85064M1322.52 2.40217L1325.12 2.75988L1333.04 3.85064M1333.04 3.85064H1365.24M1365.24 3.85064L1376.63 5.34451M1365.24 3.85064H1376.63M1376.63 72.987V71.22M1376.63 72.987V75.9163M1376.63 71.22V66.79M1376.63 75.9163V76.7916V80.9044M1376.63 80.9044V86.2116M1376.63 38.7294V35.9356M1376.63 38.7294V41.4204M1376.63 2.40217V3.85064M1376.63 3.85064V5.34451M1376.63 5.34451L1376.66 5.34817H1376.63M1376.63 5.34451V5.34817M1376.63 5.34817V6.89695M1376.63 6.89695V8.50003M1376.63 8.50003V9.85385M1376.63 9.85385V10.1601M1376.63 10.1601V11.8803M1376.63 11.8803V13.6639M1376.63 13.6639V14.838M1376.63 14.838V15.5145M1376.63 15.5145V17.4359M1376.63 17.4359V19.4325M1376.63 19.4325V20.3761M1376.63 20.3761V21.5084M1376.63 21.5084V23.6688M1376.63 23.6688V25.9186M1376.63 25.9186V26.5655M1376.63 26.5655V28.2639M1376.63 28.2639V30.7105M1376.63 30.7105V33.2652M1376.63 33.2652V33.5288M1376.63 33.5288V35.9356M1376.63 41.6556V44.7237M1376.63 41.6556V41.4204M1376.63 44.7237V47.9444M1376.63 47.9444V50.4394M1376.63 50.4394V51.3292M1376.63 51.3292V54.8911M1376.63 54.8911V58.6443M1376.63 58.6443V60.8459M1376.63 60.8459V62.605M1376.63 62.605V66.79M1376.63 86.2116V87.3355M1376.63 87.3355V91.8699M1376.63 91.8699V97.9154M1376.63 97.9154V104.389M1376.63 104.389V104.553M1376.63 104.553V111.339M1376.63 111.339V118.818M1376.63 118.818V125.598M1376.63 125.598V126.89M1376.63 126.89V135.628M1376.63 135.628V145.119M1376.63 145.119V151.903M1376.63 151.903V155.463M1376.63 155.463V166.782M1376.63 166.782V179.22M1376.63 179.22V185.725M1376.63 185.725V192.951M1376.63 192.951V193H1.37032V192.951M1.37032 41.6556V44.7237M1.37032 41.6556V41.4204M1.37032 41.4204V38.7294M1.37032 38.7294V35.9356M1.37032 35.9356V33.5288M1.37032 33.5288V33.2652M1.37032 33.2652V30.7105M1.37032 30.7105V28.2639M1.37032 28.2639V26.5655M1.37032 26.5655V25.9186M1.37032 25.9186V23.6688M1.37032 23.6688V21.5084M1.37032 21.5084V20.3761M1.37032 20.3761V19.4325M1.37032 19.4325V17.4359M1.37032 17.4359V15.5145M1.37032 15.5145V14.838M1.37032 14.838V13.6639M1.37032 13.6639V11.8803M1.37032 11.8803V10.1601M1.37032 10.1601V9.85385M1.37032 9.85385V8.50003M1.37032 8.50003V6.89695M1.37032 6.89695V5.34817M1.37032 5.34817H1.34239L1.37032 5.3445M1.37032 5.34817V5.3445M1.37032 5.3445V3.85064M1.37032 3.85064V2.40217M1.37032 192.951V185.725M1.37032 185.725V179.22M1.37032 179.22V166.782M1.37032 166.782V155.463M1.37032 155.463V151.903M1.37032 151.903V145.119M1.37032 145.119V135.628M1.37032 135.628V126.89M1.37032 126.89V125.598M1.37032 125.598V118.818M1.37032 118.818V111.339M1.37032 111.339V104.553M1.37032 104.553V104.389M1.37032 104.389V97.9154M1.37032 97.9154V91.8699M1.37032 91.8699V87.3355M1.37032 87.3355V86.2116M1.37032 86.2116V80.9044M1.37032 80.9044V75.9163M1.37032 75.9163V72.987M1.37032 72.987V71.22M1.37032 71.22V66.79M1.37032 66.79V62.605M1.37032 62.605V60.8459M1.37032 60.8459V58.6443M1.37032 58.6443V54.8911M1.37032 54.8911V51.3292M1.37032 51.3292V50.4394M1.37032 50.4394V47.9444M1.37032 47.9444V44.7237" stroke="url(#paint0_radial_711_2314)" stroke-miterlimit="10" stroke-linecap="round" stroke-linejoin="round"/>
<defs>
<radialGradient id="paint0_radial_711_2314" cx="0" cy="0" r="1" gradientUnits="userSpaceOnUse" gradientTransform="translate(689 185.923) rotate(-90) scale(300.551 1082.9)">
<stop stop-color="white"/>
<stop offset="0.637298" stop-color="white" stop-opacity="0"/>
</radialGradient>
</defs>
</svg>
