<svg width="68" height="72" viewBox="0 0 68 72" fill="none" xmlns="http://www.w3.org/2000/svg">
<path fill-rule="evenodd" clip-rule="evenodd" d="M13.1281 22.587C14.2116 22.3252 15.3191 22.1933 16.43 22.194C25.2275 22.194 32.3572 30.342 32.3572 40.389C32.3572 50.439 25.2275 58.587 16.43 58.587C7.6325 58.587 0.5 50.442 0.5 40.389C0.5 40.095 0.505625 39.798 0.519687 39.504H0.5C0.5 24.339 11.3 12 24.575 12V18.108C20.2691 18.108 16.2978 19.782 13.1281 22.587ZM48.7738 22.587C49.8369 22.329 50.9394 22.194 52.07 22.194C60.8675 22.194 68 30.342 68 40.389C68 50.439 60.8675 58.587 52.07 58.587C43.2725 58.587 36.1428 50.442 36.1428 40.389C36.1428 40.095 36.1484 39.798 36.1625 39.504H36.1428C36.1428 24.339 46.9428 12 60.2178 12V18.108C55.9091 18.108 51.9434 19.782 48.7738 22.587Z" fill="#D4002A"/>
</svg>
