<svg width="29" height="28" viewBox="0 0 29 28" fill="none" xmlns="http://www.w3.org/2000/svg">
<g clip-path="url(#clip0_711_2463)">
<path d="M19.2145 27.9235C19.1613 27.9634 19.0827 27.9148 19.0815 27.8483C18.8994 18.4729 11.6819 10.2276 1.19316 9.79117C1.05567 9.78545 0.973303 9.61557 1.07061 9.51826C4.1766 6.41228 7.28258 3.30629 10.3809 0.192619C10.5577 0.0157933 10.7115 -0.0380232 10.9498 0.0234814C19.1222 2.13002 24.9652 6.88894 27.9712 14.8845C28.3479 15.884 28.5709 16.945 28.8477 17.9828C28.8784 18.0982 28.8323 18.2981 28.7477 18.3826C25.5725 21.5655 22.3974 24.7484 19.2145 27.9235Z" fill="#3D3D3D"/>
<path d="M0.96875 13.9999C1.72987 13.2004 2.49099 12.3777 3.29055 11.5859C3.40587 11.4706 3.69802 11.4782 3.89022 11.5167C5.61235 11.8396 7.24222 12.4546 8.77984 13.2926C13.4542 15.8681 16.2603 19.8121 17.3597 25.0093C17.4212 25.3014 17.3674 25.5013 17.1522 25.7243C16.4141 26.4469 15.6991 27.2004 14.9687 27.9461C14.9534 27.9615 14.9303 27.9692 14.8765 27.9999C14.715 24.1943 13.5311 20.8116 10.7711 18.1207C8.02641 15.4453 4.67441 14.1921 0.96875 13.9999Z" fill="#3D3D3D"/>
<path d="M10.6343 27.9848C10.4344 21.6575 5.36031 18.3132 0.832031 18.2209C0.955041 18.0902 1.03192 17.9903 1.12418 17.898C1.7546 17.2829 2.4004 16.6756 3.01545 16.0375C3.26915 15.7684 3.50748 15.7069 3.85345 15.8068C8.41248 17.0907 11.457 19.943 12.9331 24.4713C13.1637 25.194 13.1176 25.6937 12.5025 26.1934C11.8414 26.7239 11.2648 27.3697 10.6343 27.9848Z" fill="#3D3D3D"/>
<path d="M6.42152 27.9229C6.22931 24.7016 3.8537 22.6258 0.847656 22.4259C0.932225 22.326 1.00142 22.2414 1.07061 22.1645C1.73179 21.5187 2.39296 20.8806 3.04645 20.2271C3.21559 20.0503 3.36166 20.0272 3.58461 20.1118C6.15243 21.0421 7.82844 22.8488 8.77407 25.3704C8.81251 25.4627 8.79713 25.6395 8.73563 25.701C7.95913 26.4545 7.18264 27.1925 6.42152 27.9229Z" fill="#3D3D3D"/>
</g>
<defs>
<clipPath id="clip0_711_2463">
<rect width="28.0231" height="28" fill="white" transform="translate(0.832031)"/>
</clipPath>
</defs>
</svg>
