<svg width="16" height="15" viewBox="0 0 16 15" fill="none" xmlns="http://www.w3.org/2000/svg">
<path d="M7.10685 1.27369C7.47629 0.540025 8.52371 0.540027 8.89315 1.27369L10.4449 4.3553C10.5904 4.64419 10.8666 4.84488 11.1863 4.89396L14.5966 5.41751C15.4086 5.54215 15.7322 6.53831 15.1486 7.11639L12.6974 9.54447C12.4676 9.7721 12.3621 10.0968 12.4142 10.4161L12.9701 13.8212C13.1024 14.6319 12.2551 15.2476 11.5249 14.8712L8.45822 13.2902C8.17072 13.142 7.82928 13.142 7.54178 13.2902L4.47506 14.8712C3.74494 15.2476 2.89755 14.6319 3.02991 13.8212L3.58582 10.4161C3.63794 10.0968 3.53243 9.7721 3.30263 9.54447L0.851369 7.11638C0.267778 6.53831 0.591452 5.54215 1.40337 5.41751L4.81367 4.89396C5.13338 4.84488 5.40961 4.64419 5.55508 4.3553L7.10685 1.27369Z" fill="#F6CF00"/>
</svg>
