<svg width="31" height="28" viewBox="0 0 31 28" fill="none" xmlns="http://www.w3.org/2000/svg">
<g clip-path="url(#clip0_711_2415)">
<path fill-rule="evenodd" clip-rule="evenodd" d="M5.03166 23.2773C-1.81206 17.2161 -0.904505 7.37654 5.95774 2.50073C10.778 -0.921127 18.1172 -1.34249 22.7892 4.4918C26.1 8.62675 26.3269 14.5722 24.2293 18.1607C22.9143 20.4018 19.8952 22.0595 18.0477 19.8462C16.3669 17.8366 18.2422 16.0539 18.8997 13.7063C21.2473 5.29286 9.60186 -0.666455 3.46659 7.42748C0.336441 11.5578 0.512396 17.9246 5.03166 23.2773Z" fill="#3D3D3D"/>
<path fill-rule="evenodd" clip-rule="evenodd" d="M26.4996 4.92188C33.2044 11.1405 32.07 20.9569 25.0966 25.6707C20.1977 28.9814 12.8539 29.2314 8.31607 23.2953C5.09794 19.0816 5.00997 13.1316 7.19088 9.59394C8.55685 7.38524 11.6129 5.79239 13.4141 8.05202C15.0487 10.0987 13.127 11.8397 12.4186 14.1688C9.88114 22.5313 21.383 28.7591 27.7035 20.8041C30.9263 16.7479 30.8985 10.3719 26.5043 4.92188H26.4996Z" fill="#3D3D3D"/>
</g>
<defs>
<clipPath id="clip0_711_2415">
<rect width="30.6393" height="28" fill="white" transform="translate(0.332031)"/>
</clipPath>
</defs>
</svg>
