<svg width="29" height="28" viewBox="0 0 29 28" fill="none" xmlns="http://www.w3.org/2000/svg">
<g clip-path="url(#clip0_711_2397)">
<path d="M0.332031 13.9922C0.332031 17.8571 1.94078 21.5808 4.76981 24.2332C5.62912 22.7775 5.9077 20.9451 5.40154 19.0931C4.70311 16.5269 2.68629 14.6239 0.332031 13.9922Z" fill="#3D3D3D"/>
<path d="M1.05376 9.58596C0.704544 10.6336 0.480889 11.7009 0.386719 12.7603C3.64737 13.086 6.41362 16.841 6.73537 21.6045C6.82954 22.9935 6.70006 24.3236 6.39793 25.5321C7.13167 26.0383 7.92427 26.4738 8.77181 26.8427C9.21912 24.6218 9.20342 22.1656 8.63055 19.6857C7.51228 14.8399 4.54984 11.1241 1.05376 9.58203V9.58596Z" fill="#3D3D3D"/>
<path d="M16.1511 7.25872C19.6903 8.05524 23.1589 7.52946 25.8467 6.04235C25.3445 5.31253 24.7716 4.62979 24.132 4.00592C21.6993 5.96388 17.6107 6.3641 13.6987 4.73574C11.6584 3.8882 9.97507 2.61298 8.78225 1.14941C8.40949 1.31029 8.04066 1.48686 7.68359 1.68305C9.44929 4.32766 12.4549 6.42688 16.1511 7.25872Z" fill="#3D3D3D"/>
<path d="M28.1791 16.0757C28.2929 15.3105 28.3439 14.5415 28.3322 13.7803C25.4089 14.7024 22.6388 16.8487 20.775 19.9602C19.3585 22.3262 18.6797 24.8885 18.6836 27.3055C19.0132 27.1996 19.335 27.0818 19.6567 26.9524C19.9471 24.7511 21.1124 22.2321 23.0508 19.9877C24.6085 18.1827 26.4174 16.8487 28.1791 16.0796V16.0757Z" fill="#3D3D3D"/>
<path d="M26.9668 7.98129C23.0194 9.78622 16.9808 9.60965 10.997 7.12198C8.71339 6.17243 6.66518 4.97961 4.91911 3.6416C3.78121 4.67355 2.80027 5.90169 2.03906 7.31032C6.55924 9.21335 10.2554 16.2055 10.8322 24.7672C10.895 25.7206 10.9185 26.6584 10.9029 27.5766C12.8294 28.067 14.7874 28.1259 16.6669 27.8042C16.9494 23.8647 18.9701 19.215 22.5211 15.1068C24.173 13.196 25.9858 11.599 27.8417 10.3473C27.622 9.5351 27.3317 8.7425 26.9668 7.98129ZM14.7717 19.0424C9.145 19.0424 9.15285 10.312 14.7717 10.312C20.3905 10.312 20.3905 19.0424 14.7717 19.0424Z" fill="#3D3D3D"/>
<path d="M16.8085 4.59107C19.045 5.00307 21.3012 4.37134 23.0433 3.04511C22.0506 2.25643 20.9363 1.58547 19.7042 1.07538C17.04 -0.0311245 14.2266 -0.254779 11.5898 0.274929C12.3981 2.44477 14.2894 4.12807 16.8085 4.59107Z" fill="#3D3D3D"/>
<path d="M27.4083 18.9834C25.3522 19.3091 23.3158 20.6824 22.017 22.8444C21.3304 23.9901 20.9458 25.2104 20.8281 26.3993C23.6258 24.9358 25.9486 22.5187 27.2553 19.3758C27.3102 19.2463 27.3573 19.1129 27.4083 18.9834Z" fill="#3D3D3D"/>
</g>
<defs>
<clipPath id="clip0_711_2397">
<rect width="28" height="28" fill="white" transform="translate(0.332031)"/>
</clipPath>
</defs>
</svg>
