<svg width="75" height="74" viewBox="0 0 75 74" fill="none" xmlns="http://www.w3.org/2000/svg">
<mask id="mask0_330_893" style="mask-type:luminance" maskUnits="userSpaceOnUse" x="0" y="0" width="75" height="74">
<path d="M74.5009 0H0.5V74H74.5009V0Z" fill="white"/>
</mask>
<g mask="url(#mask0_330_893)">
<path d="M12.1685 35.492L9.57765 35.0062L9.54208 37.5993L12.1321 38.0856L12.1685 35.492ZM13.4731 39.8514L13.4458 41.8126L12.0844 41.544L12.1118 39.582L9.52112 39.0955L9.49373 41.0575L8.13249 40.7882L8.15972 38.8269L5.00498 38.2329L5.02523 36.7364L8.18068 37.3306L8.21641 34.7369L5.06167 34.1428L5.08262 32.6465L8.23737 33.2406L8.2646 31.2793L9.626 31.548L9.59861 33.5099L12.1886 33.9963L12.216 32.0343L13.5774 32.3029L13.55 34.2649L16.7055 34.8591L16.6845 36.3554L13.5298 35.7613L13.494 38.3551L16.6488 38.9491L16.6278 40.4454L13.4731 39.8514Z" fill="#A60608"/>
<path d="M7.74116 21.7161L8.84926 20.4316L16.8799 24.2956L18.1745 25.037L17.2278 23.8923L12.2396 16.503L13.3478 15.2185L21.3997 19.0575L22.673 19.8239L21.7475 18.6543L16.7373 11.2904L17.8454 10.0059L24.4794 20.1508L23.3059 21.5106L14.4586 17.2944L19.9377 25.4137L18.7649 26.7735L7.74116 21.7161Z" fill="#A60608"/>
<path d="M32.81 15.2646C33.6257 15.0914 34.3046 14.7541 34.8458 14.2525C35.3841 13.7405 35.7457 13.1187 35.9308 12.3863C36.124 11.6408 36.1282 10.8332 35.9425 9.9641C35.7569 9.09497 35.4246 8.36447 34.9461 7.77348C34.4758 7.16946 33.8912 6.74858 33.1923 6.51085C32.4906 6.26209 31.7323 6.22439 30.9165 6.39759C30.1008 6.5708 29.4235 6.91442 28.8845 7.42619C28.3435 7.92709 27.9755 8.55047 27.7823 9.29594C27.5981 10.0278 27.5983 10.829 27.784 11.6981C27.9696 12.5672 28.2977 13.3035 28.7678 13.9082C29.2468 14.5 29.837 14.9192 30.538 15.1678C31.2369 15.4055 31.9943 15.4378 32.81 15.2646ZM33.1162 16.6988C32.0614 16.9228 31.0462 16.8828 30.0714 16.5789C29.1055 16.2621 28.2766 15.7109 27.5861 14.9261C26.8957 14.1414 26.4284 13.1788 26.1846 12.0376C25.9414 10.8966 25.9742 9.82777 26.2847 8.83063C26.5945 7.83262 27.1269 6.99875 27.8821 6.3269C28.6455 5.64201 29.5555 5.18738 30.6103 4.9634C31.6651 4.73942 32.676 4.78517 33.6418 5.10262C34.6165 5.4072 35.4499 5.95132 36.1404 6.73607C36.8308 7.52082 37.2974 8.48326 37.5413 9.62441C37.7851 10.7656 37.7514 11.835 37.4417 12.8323C37.1313 13.8294 36.5951 14.6706 35.8317 15.3555C35.0766 16.0266 34.1712 16.4741 33.1162 16.6988Z" fill="#A60608"/>
<path d="M47.3731 12.2295C48.0722 12.5126 48.6926 12.5489 49.2336 12.3373C49.7886 12.12 50.1954 11.6928 50.454 11.0559C50.7165 10.4087 50.7267 9.82114 50.4863 9.29291C50.2559 8.76922 49.7807 8.36119 49.0605 8.06955L46.8849 7.18828L45.1975 11.3482L47.3731 12.2295ZM45.9544 5.23201L49.3638 6.6141C50.176 6.94292 50.8227 7.3719 51.3024 7.90144C51.7821 8.43098 52.0754 9.02173 52.182 9.6751C52.2885 10.3285 52.2015 10.9991 51.9223 11.6871C51.6432 12.3752 51.2389 12.8996 50.7098 13.2589C50.1908 13.6228 49.5403 13.8549 48.7565 13.9558L49.5089 19.2301L47.8117 18.5426L47.1624 13.723L44.6475 12.704L43.0599 16.6172L41.5788 16.0166L45.9544 5.23201Z" fill="#A60608"/>
<path d="M62.8155 15.7562L63.6912 17.0999L59.5167 19.8127L66.1266 20.8367L67.1574 22.4184L59.8348 21.28L57.4795 28.9871L56.3488 27.2518L58.3961 20.5409L53.8858 23.4723L53.0101 22.1287L62.8155 15.7562Z" fill="#A60608"/>
<path d="M70.3032 34.5822L70.0557 41.7442L68.5917 41.6926L68.7838 36.1263L64.9907 35.9932L64.8137 41.1279L63.3495 41.077L63.5265 35.9424L58.602 35.7698L58.6572 34.1749L70.3032 34.5822Z" fill="#A60608"/>
<path d="M60.0924 51.3336C59.6778 51.9665 59.5236 52.5691 59.6276 53.1415C59.7348 53.7296 60.0769 54.2131 60.655 54.5902C61.2422 54.9737 61.8196 55.0976 62.3863 54.9633C62.9465 54.8379 63.4397 54.4496 63.866 53.7985L65.1539 51.831L61.3797 49.3659L60.0924 51.3336ZM67.2607 51.2939L65.2424 54.3785C64.7614 55.1139 64.214 55.6662 63.6001 56.0353C62.9862 56.4044 62.3474 56.5782 61.683 56.5558C61.0192 56.5343 60.3746 56.3193 59.7505 55.9118C59.1259 55.5034 58.6875 55.0048 58.4349 54.4151C58.1765 53.8345 58.0726 53.1497 58.1242 52.3596L52.782 52.0776L53.7861 50.5427L58.6613 50.8373L60.1497 48.5625L56.599 46.2439L57.4756 44.9041L67.2607 51.2939Z" fill="#A60608"/>
<path d="M45.9886 57.5406C45.2148 57.8475 44.604 58.2917 44.1551 58.8752C43.7105 59.4694 43.4595 60.1415 43.3996 60.8926C43.3335 61.6579 43.4653 62.4531 43.7927 63.2777C44.1202 64.1016 44.569 64.7647 45.1383 65.2662C45.702 65.7827 46.3473 66.0998 47.0743 66.2167C47.8057 66.3442 48.5577 66.2555 49.3315 65.9486C50.1052 65.6424 50.7144 65.1919 51.1588 64.5985C51.6069 64.0156 51.8645 63.3405 51.9299 62.575C51.9897 61.8239 51.8555 61.0363 51.528 60.2124C51.1999 59.3877 50.7549 58.718 50.1912 58.2014C49.6211 57.6998 48.9709 57.3846 48.2396 57.257C47.5126 57.1401 46.7623 57.2344 45.9886 57.5406ZM45.4475 56.1812C46.4478 55.7842 47.453 55.6546 48.4626 55.7916C49.4653 55.9426 50.3728 56.3465 51.1829 57.0037C51.9932 57.6601 52.6132 58.5293 53.0437 59.6115C53.4742 60.6937 53.6203 61.751 53.4818 62.7841C53.3434 63.8164 52.9583 64.726 52.3281 65.5124C51.6916 66.3138 50.8725 66.9125 49.8724 67.3087C48.8723 67.705 47.8708 67.828 46.8674 67.6769C45.8578 67.5399 44.9471 67.1434 44.137 66.4863C43.3269 65.8292 42.7069 64.96 42.2764 63.8778C41.8464 62.7964 41.7003 61.7391 41.8389 60.7061C41.9774 59.673 42.365 58.7558 43.0014 57.9552C43.6315 57.1687 44.4474 56.5775 45.4475 56.1812Z" fill="#A60608"/>
<path d="M33.5434 69.8307L31.913 69.3406L31.0892 58.9974L24.69 67.167L23.0605 66.6763L26.4242 55.5051L27.9584 55.9668L25.6807 63.5315L30.8666 56.842L32.4649 57.3227L33.0953 65.7626L35.373 58.1979L36.9072 58.6596L33.5434 69.8307Z" fill="#A60608"/>
<path d="M15.3846 52.9483L12.7089 58.373L11.7654 56.9479L13.7594 53.047L9.38382 53.3512L8.44102 51.9262L14.4872 51.5923L17.6563 44.8088L18.6182 46.2611L16.0852 51.5121L21.9154 51.2417L22.8766 52.6939L15.3846 52.9483Z" fill="#A60608"/>
</g>
</svg>
